<svg width="213" height="163" viewBox="0 0 213 163" fill="none" xmlns="http://www.w3.org/2000/svg">
<g clip-path="url(#clip0_42_356)">
<path d="M114.553 162.843C157.23 162.843 191.827 152.878 191.827 140.585C191.827 128.293 157.23 118.328 114.553 118.328C71.8758 118.328 37.2791 128.293 37.2791 140.585C37.2791 152.878 71.8758 162.843 114.553 162.843Z" fill="#F5F5F5"/>
<path d="M188.073 54.0023C188.073 54.0023 174.385 67.8019 182.112 88.2786C189.84 108.755 168.865 142.809 168.865 142.809C168.865 142.809 169.086 142.776 169.508 142.702C197.622 137.699 211.591 105.283 195.958 81.203C190.153 72.2511 185.373 61.7479 188.073 54.0023Z" fill="#9347B2"/>
<path d="M188.073 54.0023C188.073 54.0023 180.346 70.9179 188.073 84.7174C195.801 98.517 189.398 137.245 168.865 142.809" stroke="#535461" stroke-width="2" stroke-miterlimit="10"/>
<path d="M212.451 109.817C212.451 109.817 196.83 107.309 195.406 121.422C193.982 135.535 165.38 137.489 165.38 137.489C165.38 137.489 165.565 137.619 165.916 137.85C189.54 153.484 212.124 147.808 208.722 127.049C207.448 119.332 207.549 111.58 212.451 109.817Z" fill="#FF8000"/>
<path d="M212.451 109.817C212.451 109.817 196.83 107.309 195.406 121.422C193.982 135.535 165.38 137.489 165.38 137.489C165.38 137.489 165.565 137.619 165.916 137.85C189.54 153.484 212.124 147.808 208.722 127.049C207.448 119.332 207.549 111.58 212.451 109.817Z" fill="#C49ED3"/>
<path d="M212.451 109.817C212.451 109.817 200.325 112.501 201.321 123.617C202.317 134.732 183.308 148.051 165.371 137.485" stroke="#535461" stroke-width="2" stroke-miterlimit="10"/>
<path opacity="0.2" d="M33.9256 0.860557C32.146 0.798237 30.3224 0.860557 28.6533 1.48821C24.1118 3.19535 21.9591 8.77972 22.659 13.6162C23.3589 18.4528 26.2379 22.6527 29.2251 26.501C32.2123 30.3493 35.449 34.1486 37.0872 38.7425C37.9041 41.0373 38.286 43.608 37.4559 45.8983C36.1753 49.4305 32.3138 51.4047 28.6069 51.8143C24.9 52.2238 21.1776 51.4248 17.4574 51.1465C15.8964 51.0353 14.2913 51.0219 12.8209 51.5383C11.207 52.1014 9.86244 53.2499 8.62606 54.4473C3.80196 59.1436 -0.05953 65.5537 0.565285 72.2843C1.27179 79.9141 7.57293 85.9459 14.4746 89.1799C16.7597 90.2527 19.1773 91.1207 21.1886 92.652C26.4874 96.6895 27.6774 104.255 27.1497 110.934C26.6221 117.614 24.8249 124.3 25.825 130.921C27.0018 138.622 32.2101 145.578 39.2354 148.827C45.4946 151.721 53.3279 151.54 58.885 147.447C61.5941 145.444 63.6429 142.682 65.4246 139.818C68.1139 135.496 70.2958 130.874 71.9267 126.045C72.7016 123.75 73.4302 121.282 75.2384 119.686C76.3423 118.704 77.773 118.154 79.1882 117.727C83.4538 116.441 87.9467 116.087 92.2519 114.943C96.5572 113.799 100.889 111.666 103.229 107.854C106.541 102.443 104.996 95.5232 105.011 89.1576C105.037 74.6547 113.646 61.6698 116.823 47.5364C117.861 42.9158 118.247 37.8033 115.929 33.6834C114.352 30.8723 111.696 28.8692 108.903 27.3112C102.766 23.8746 95.7889 22.3456 88.9247 20.8565C79.3847 18.7911 67.8003 18.524 60.4062 11.8423C53.3103 5.43221 43.6025 0.860557 33.9256 0.860557Z" fill="url(#paint0_linear_42_356)"/>
<g opacity="0.5">
<path opacity="0.5" d="M68.5325 56.9958C68.532 53.5001 67.9889 50.026 66.923 46.6995L64.2736 38.4176C64.2736 38.2796 64.2736 38.1438 64.2736 38.0081C64.3553 32.6997 60.2509 30.0511 58.6701 30.3382C57.0518 30.632 52.5611 28.3617 52.5611 28.3617V28.4241C52.2532 28.0667 51.9755 27.6841 51.7309 27.28C52.5068 26.7103 53.1619 25.9901 53.6577 25.1615C54.1536 24.3329 54.4801 23.4128 54.6181 22.4552C54.7561 21.4976 54.7028 20.5219 54.4615 19.5853C54.2201 18.6488 53.7954 17.7703 53.2124 17.0016C53.6978 16.6339 54.0679 16.1333 54.2788 15.5593C54.6453 14.5199 54.3649 13.3336 53.7688 12.4077C53.5153 12.0212 53.219 11.665 52.8856 11.346C52.3807 10.8417 51.8292 10.3871 51.2386 9.9883C49.766 8.96002 48.1476 8.0764 46.3814 7.76257C46.0757 7.68982 45.7575 7.68982 45.4519 7.76257C45.1866 7.87048 44.9341 8.00784 44.699 8.17211C43.4891 8.86654 41.9834 8.56606 40.588 8.49261C39.1927 8.41916 37.4971 8.81312 37.0555 10.133C36.9186 10.5403 36.9275 10.981 36.8347 11.3994C36.614 12.4233 35.8302 13.2178 35.2252 14.0703C34.6203 14.9228 34.1677 16.0735 34.6711 16.9994C34.8433 17.311 35.1126 17.5981 35.1126 17.9542C35.1126 18.2102 34.9625 18.4394 34.8918 18.6842C34.7395 19.2407 35.0265 19.7971 35.4681 20.2C35.6584 20.4068 35.8824 20.5792 36.1304 20.7097C36.8303 21.0702 37.6362 21.1815 38.3493 21.5154C38.7053 21.6839 39.0318 21.9094 39.3163 22.1831C39.6648 22.5509 39.9372 22.9849 40.1177 23.4599C40.2981 23.9349 40.3829 24.4413 40.3673 24.9497L40.5152 24.9653C40.5152 25.0098 40.5152 25.0521 40.5152 25.0966C40.6697 25.1144 40.8331 25.13 40.9943 25.1366C41.2261 25.514 41.4914 25.8693 41.7869 26.1983C41.7368 26.3882 41.6802 26.5811 41.6169 26.777C41.098 27.1398 36.8546 29.9887 32.0283 29.3032C26.8774 28.571 23.9322 51.2734 23.9322 51.2734C23.7413 52.5717 23.6483 53.8827 23.654 55.1952C23.6319 58.5338 24.3274 62.9029 28.2021 62.2596L30.262 61.5764V72.8052C30.262 72.8052 30.5557 75.8811 29.5268 77.9244C28.498 79.9676 32.7657 79.242 32.7657 79.242C32.7657 79.242 32.9291 79.4134 33.2293 79.7049L33.1344 79.9743L33.2603 80.1034C32.699 82.0378 31.9421 83.9091 31.0017 85.6877L31.1231 85.75C31.0458 85.8992 31.0017 85.9726 31.0017 85.9726C31.0017 85.9726 32.5869 86.7895 34.7682 87.8422C36.5212 93.8161 40.3584 107.651 39.0955 110.287L39.1309 110.362C39.3671 110.856 40.6874 113.77 40.4202 116.438C40.1796 118.824 43.456 129.666 44.6791 133.603L44.1007 133.721L46.1606 141.191L45.719 146.025C45.719 146.025 43.2176 152.762 49.1036 151.445C54.9897 150.127 53.3714 144.707 53.3714 144.707L53.5193 133.721C53.5193 133.721 52.9519 133.403 52.252 133.098C51.7707 131.787 50.722 128.689 50.722 126.545C50.722 123.763 48.8078 111.751 48.8078 111.751V111.727V111.68V111.666L48.7967 111.506V111.48C48.7967 111.33 48.7724 111.126 48.7548 110.876V110.863C48.534 107.616 47.8717 96.5827 48.3552 90.8314C48.7804 90.5391 49.2228 90.273 49.6799 90.0346C51.1127 93.6848 54.8064 103.547 54.5702 107.685C54.2766 112.804 54.4973 108.784 54.5702 108.13C54.5923 107.927 54.6077 108.172 54.6144 108.722C54.6144 108.822 54.6144 108.933 54.6144 109.051C54.6144 109.169 54.6144 109.301 54.6144 109.436C54.6144 109.572 54.6144 109.719 54.6144 109.881C54.6144 109.959 54.6144 110.037 54.6144 110.117C54.6144 110.278 54.6144 110.445 54.6144 110.62C54.6144 110.708 54.6144 110.797 54.6144 110.887C54.6144 111.333 54.6144 111.827 54.5989 112.341C54.5989 112.443 54.5989 112.547 54.5989 112.652C54.5989 112.966 54.5989 113.287 54.5835 113.612C54.5835 114.057 54.5658 114.489 54.557 114.936C54.5349 115.938 54.5062 116.95 54.4709 117.899C54.4709 118.004 54.4672 118.108 54.4598 118.212C54.4525 118.42 54.4444 118.623 54.4355 118.822C54.4267 119.021 54.4179 119.215 54.409 119.405C54.4002 119.594 54.3906 119.777 54.3803 119.955C54.3693 120.164 54.356 120.365 54.345 120.556L53.5458 120.44L53.3758 122.292C53.108 125.232 53.4848 128.196 54.4797 130.972C54.7535 131.734 54.9654 132.364 55.0118 132.588C55.1597 133.321 55.0118 138.598 55.0118 138.598C55.0118 138.598 55.8949 145.482 60.0169 144.162C61.8715 143.568 62.7723 141.761 63.2028 139.949C63.6805 137.849 63.5024 135.651 62.6928 133.657C62.1077 132.174 61.5094 130.096 61.9311 128.489C62.6663 125.706 62.6663 121.751 62.6663 121.751L62.2115 121.687C62.3248 121.469 62.4273 121.247 62.5184 121.019C62.5184 121.019 62.3705 110.912 63.6952 109.594C64.4237 108.869 64.3575 107.126 64.1367 105.702C63.8213 103.64 63.7472 101.548 63.9159 99.4695C64.0065 98.3989 64.1367 97.4663 64.2891 97.1347C64.6776 96.3601 65.0662 88.5522 63.3463 84.7952L63.6996 84.6839L63.6444 84.4079L63.6996 84.3901C63.959 85.0882 64.2538 85.7724 64.5827 86.44C64.6696 86.5087 64.7695 86.5587 64.8763 86.5869C69.643 85.7434 69.8351 81.2585 69.5702 78.8102C69.7711 78.9081 69.8815 78.9705 69.8815 78.9705L70.3231 72.5158C70.7757 71.4853 70.9435 70.1699 70.9324 68.7477C70.9523 63.6641 68.5325 56.9958 68.5325 56.9958ZM63.2779 75.3425C62.9511 72.5314 62.4985 69.885 62.4985 69.885L60.2907 61.9748V59.0947L63.7923 72.271L63.2779 75.3425Z" fill="url(#paint1_linear_42_356)"/>
</g>
<path d="M53.3508 118.551L53.1875 120.36C52.9296 123.235 53.295 126.133 54.2583 128.851C54.521 129.597 54.7263 130.211 54.7705 130.431C54.9118 131.148 54.7705 136.301 54.7705 136.301C54.7705 136.301 55.6227 143.029 59.599 141.74C61.3873 141.162 62.2484 139.392 62.6723 137.623C63.1319 135.571 62.9593 133.426 62.1777 131.475C61.6125 130.026 61.0341 127.99 61.4425 126.425C62.1535 123.705 62.1535 119.841 62.1535 119.841L53.3508 118.551Z" fill="#9347B2"/>
<path d="M49.0925 87.4884C49.0925 87.4884 54.6298 101.088 54.3449 106.096C54.0601 111.103 54.2743 107.168 54.3449 106.525C54.4708 105.379 54.3449 118.989 53.9188 120.547C53.9188 120.547 59.7409 124.841 62.0127 119.116C62.0127 119.116 61.8714 109.24 63.1475 107.952C63.8496 107.244 63.7812 105.539 63.5737 104.148C63.2673 102.136 63.1932 100.095 63.3529 98.0651C63.439 97.019 63.5582 96.0975 63.7127 95.7837C64.1389 94.9246 64.565 85.1914 62.0083 82.4716L49.0925 87.4884Z" fill="#9347B2"/>
<path d="M44.2639 131.576L46.2509 138.876L45.8248 143.599C45.8248 143.599 43.4116 150.183 49.0902 148.894C54.7687 147.605 53.2078 142.31 53.2078 142.31L53.3491 131.576C53.3491 131.576 51.0772 130.287 50.0837 130.432C49.0902 130.576 44.2639 131.576 44.2639 131.576Z" fill="#9347B2"/>
<path d="M34.4662 84.0542C34.4662 84.0542 40.997 105.381 39.4361 108.673C39.4361 108.673 40.997 111.822 40.7144 114.683C40.4318 117.543 45.2581 132.86 45.2581 132.86L52.3585 131.571C52.3585 131.571 50.654 127.278 50.654 124.558C50.654 121.838 48.8083 110.091 48.8083 110.091C48.8083 110.091 47.2474 88.6192 49.0931 86.3289L34.4662 84.0542Z" fill="#9347B2"/>
<g opacity="0.1">
<path opacity="0.1" d="M48.54 88.0739C47.3632 92.9349 48.6637 110.823 48.6637 110.823C48.6637 110.823 50.5094 122.559 50.5094 125.29C50.5094 127.367 51.5007 130.358 51.971 131.658L52.3551 131.589C52.3551 131.589 50.6507 127.296 50.6507 124.576C50.6507 121.856 48.8049 110.109 48.8049 110.109C48.8049 110.109 47.6171 93.7606 48.54 88.0739Z" fill="black"/>
<path opacity="0.1" d="M39.4352 108.673L39.4705 108.747C39.4815 108.673 39.4926 108.595 39.4992 108.524C39.4804 108.575 39.459 108.624 39.4352 108.673Z" fill="black"/>
<path opacity="0.1" d="M48.7708 87.0322C48.8353 86.7853 48.9437 86.5523 49.0909 86.3445L34.4662 84.0542C34.4662 84.0542 34.5524 84.3324 34.7003 84.8288L48.7708 87.0322Z" fill="black"/>
</g>
<path d="M68.5434 76.324C68.5434 76.324 70.6739 84.3366 64.2845 85.4851C64.1808 85.4579 64.0838 85.4094 63.9997 85.3426C63.9997 85.3426 60.3082 78.0422 63.1474 75.1799L68.5434 76.324Z" fill="#A1616A"/>
<path d="M42.4184 23.0823C42.4184 23.0823 42.8445 29.0918 38.1595 31.9563C33.4745 34.8208 48.0947 42.691 48.0947 42.691L55.7625 30.3805C55.7625 30.3805 52.4993 30.8056 50.5123 25.0854L42.4184 23.0823Z" fill="#F89D8F"/>
<path opacity="0.1" d="M39.2937 32.3813C39.2937 32.3813 46.5354 47.5542 53.0661 33.2405L63.147 83.6222C63.147 83.6222 47.5267 88.4899 47.3876 90.7802C47.2485 93.0704 31.6303 84.9131 31.6303 84.9131C31.6303 84.9131 35.037 78.6143 34.187 74.7504C33.337 70.8866 39.2937 32.3813 39.2937 32.3813Z" fill="black"/>
<path d="M39.2937 32.0942C39.2937 32.0942 46.5354 47.2671 53.0661 32.9534L63.147 83.3373C63.147 83.3373 47.5267 88.205 47.3876 90.4953C47.2485 92.7856 31.6303 84.626 31.6303 84.626C31.6303 84.626 35.037 78.3272 34.187 74.4633C33.337 70.5994 39.2937 32.0942 39.2937 32.0942Z" fill="#E1E7EF"/>
<path d="M46.3946 135.584C46.3946 135.584 44.5489 131.433 48.8078 131.433C53.0667 131.433 52.358 135.155 52.358 135.155L46.3946 135.584Z" fill="#E1E7EF"/>
<path d="M56.0492 124.847C56.0492 124.847 54.3448 120.409 58.6059 120.267C62.867 120.124 60.7364 124.273 60.7364 124.273L56.0492 124.847Z" fill="#5A5773"/>
<path opacity="0.1" d="M52.428 28.8693C52.428 28.8693 56.7576 31.095 58.3207 30.8012C59.8839 30.5074 63.9993 33.2339 63.7167 38.6736L66.2822 46.7886C67.3084 50.0425 67.8297 53.4368 67.8276 56.8512C67.8276 56.8512 71.5191 67.1563 69.5321 71.7369L69.106 78.0357C69.106 78.0357 65.8406 76.175 62.4317 76.747L63.2905 71.6033L59.4489 57.0003L53.0595 41.3979L52.428 28.8693Z" fill="black"/>
<path d="M52.428 28.5865C52.428 28.5865 56.7576 30.8123 58.3207 30.5185C59.8839 30.2247 63.9993 32.9512 63.7167 38.3909L66.2822 46.5059C67.3084 49.7598 67.8297 53.1541 67.8276 56.5685C67.8276 56.5685 71.5191 66.8736 69.5321 71.4542L69.106 77.753C69.106 77.753 65.8406 75.8923 62.4317 76.4643L63.2839 71.3117L59.4489 56.7131L53.0661 41.1108L52.428 28.5865Z" fill="#9347B2"/>
<path opacity="0.1" d="M59.5991 45.9786V62.153L61.7296 69.8829C61.7296 69.8829 63.1492 78.3274 62.7231 80.9048C62.297 83.4822 55.4815 84.0542 53.6357 81.9063C51.79 79.7585 52.7835 61.4296 52.7835 61.4296L52.428 34.5984L52.7128 33.7393L59.5991 45.9786Z" fill="black"/>
<path d="M59.8912 45.2639V61.4383L62.0218 69.1683C62.0218 69.1683 63.4414 77.6127 63.0153 80.1901C62.5892 82.7675 55.7736 83.3396 53.9279 81.1917C52.0822 79.0439 53.0757 60.715 53.0757 60.715L52.7202 33.8771L59.8912 45.2639Z" fill="#9347B2"/>
<path opacity="0.1" d="M31.2737 58.7186L35.8174 72.9633L33.6869 79.0462C33.6869 79.0462 43.7678 89.7809 50.1573 84.6283C50.1573 84.6283 50.8682 62.7271 49.4464 57.5745C48.0245 52.422 41.2112 35.0946 41.2112 35.0946L39.8004 30.5208L32.2761 34.8142L31.2737 58.7186Z" fill="black"/>
<path d="M30.917 58.0018V72.0239C30.917 72.0239 31.2018 75.0309 30.2061 77.0341C29.2104 79.0372 33.3302 78.3228 33.3302 78.3228C33.3302 78.3228 43.4111 89.0575 49.8005 83.9049C49.8005 83.9049 50.5115 62.0037 49.0896 56.8511C47.6678 51.6985 40.8544 34.3712 40.8544 34.3712L39.4348 29.7906L31.9105 34.0841L30.917 58.0018Z" fill="#9347B2"/>
<path opacity="0.1" d="M41.9209 27.2999C41.9209 27.2999 37.5914 30.5206 32.6216 29.8039C27.6518 29.0872 24.8125 51.2755 24.8125 51.2755C24.8125 51.2755 22.9667 62.7269 28.9301 61.7253L42.1351 57.2872C42.1351 57.2872 39.2958 54.2803 39.7219 50.4164L33.3303 52.9916L33.6173 40.6833L41.9209 27.2999Z" fill="black"/>
<path opacity="0.1" d="M25.0941 50.9887C25.0941 50.9887 23.2484 62.4401 29.2117 61.4385L42.4167 57.0004C42.4167 57.0004 39.5775 53.9956 40.0036 50.1295L33.6163 52.7069L25.0941 50.9887Z" fill="black"/>
<path d="M39.6903 51.6386C39.6903 51.6386 44.1214 45.7649 47.3846 48.5849C50.6477 51.4049 40.8605 56.573 40.8605 56.573L39.6903 51.6386Z" fill="#F89D8F"/>
<path d="M41.9209 27.0129C41.9209 27.0129 37.5914 30.2336 32.6216 29.5169C27.6518 28.8002 24.8125 50.9885 24.8125 50.9885C24.8125 50.9885 22.9667 62.4399 28.9301 61.4384L42.1351 57.0002C42.1351 57.0002 39.2958 53.9933 39.7219 50.1294L33.3303 52.7068L33.6173 40.3963L40.859 34.3868L41.9209 27.0129Z" fill="#9347B2"/>
<path opacity="0.1" d="M50.6529 25.3658L42.559 23.3627C42.559 23.3627 42.9807 23.8434 42.4883 25.7242C43.791 27.231 45.3916 29.2319 47.5288 29.2319C49.0582 29.2348 50.5473 28.7373 51.7723 27.8141C51.3151 27.0398 50.94 26.2192 50.6529 25.3658Z" fill="black"/>
<path d="M47.3867 28.947C51.3082 28.947 54.4871 25.7423 54.4871 21.7891C54.4871 17.8358 51.3082 14.6311 47.3867 14.6311C43.4653 14.6311 40.2864 17.8358 40.2864 21.7891C40.2864 25.7423 43.4653 28.947 47.3867 28.947Z" fill="#F89D8F"/>
<path opacity="0.1" d="M50.0786 18.682C51.7257 18.3994 53.5361 17.6626 54.088 16.0735C54.4413 15.0563 54.1719 13.8989 53.5957 12.9931C53.0194 12.0872 52.1716 11.3905 51.2973 10.7673C49.8777 9.76129 48.3124 8.89771 46.6035 8.59501C46.3089 8.52399 46.0018 8.52399 45.7071 8.59501C45.4509 8.70074 45.2072 8.83512 44.9807 8.99564C43.8128 9.67449 42.3601 9.38069 41.0067 9.30947C39.6533 9.23825 38.0305 9.6233 37.6044 10.912C37.4719 11.3104 37.4808 11.74 37.3836 12.1495C37.1628 13.1511 36.4144 13.9301 35.8381 14.7647C35.2619 15.5994 34.8181 16.7278 35.3038 17.627C35.4694 17.932 35.7454 18.2124 35.7454 18.5596C35.7028 18.8064 35.6286 19.0466 35.5246 19.2741C35.3237 20.013 35.9088 20.7586 36.5844 21.1103C37.26 21.462 38.0371 21.571 38.726 21.8982C39.3707 22.219 39.9105 22.7196 40.2812 23.3407C40.6518 23.9617 40.8377 24.677 40.8168 25.4015C41.4438 25.475 42.1746 25.5128 42.5985 25.041C42.7884 24.8295 42.8811 24.5468 43.0533 24.322C43.2741 24.0283 43.6185 23.8546 43.9011 23.6187C45.387 22.3879 44.3316 20.6874 45.1728 19.3609C45.6144 18.6776 46.3165 18.8868 47.0274 18.8979C48.0489 18.922 49.0704 18.8497 50.0786 18.682Z" fill="black"/>
<path d="M49.9383 18.5396C51.5853 18.2569 53.3957 17.5202 53.9477 15.931C54.301 14.9139 54.0316 13.7565 53.4554 12.8506C52.8791 11.9447 52.0313 11.2481 51.157 10.6249C49.7374 9.61884 48.172 8.75525 46.4632 8.45255C46.1685 8.38154 45.8614 8.38154 45.5668 8.45255C45.3106 8.55828 45.0669 8.69267 44.8404 8.85319C43.6725 9.53204 42.2197 9.23824 40.8663 9.16702C39.5129 9.09579 37.8902 9.48084 37.4641 10.7695C37.3316 11.1679 37.3404 11.5975 37.2433 12.0071C37.0225 13.0086 36.2741 13.7876 35.6978 14.6223C35.1216 15.4569 34.6778 16.5854 35.1635 17.4846C35.3291 17.7895 35.6051 18.0699 35.6051 18.4172C35.5625 18.6639 35.4883 18.9041 35.3843 19.1316C35.1834 19.8706 35.7685 20.6162 36.4441 20.9679C37.1196 21.3195 37.8968 21.4286 38.5856 21.7558C39.233 22.0762 39.7751 22.5778 40.1471 23.2007C40.5191 23.8236 40.7051 24.5413 40.6831 25.268C41.3101 25.3414 42.0409 25.3793 42.4648 24.9074C42.6547 24.696 42.7474 24.4133 42.9196 24.1885C43.1404 23.8947 43.4848 23.7211 43.7674 23.4852C45.2533 22.2543 44.1979 20.5539 45.0391 19.2273C45.4807 18.544 46.1828 18.7533 46.8937 18.7644C47.9133 18.7851 48.9326 18.7099 49.9383 18.5396Z" fill="#141720"/>
<path opacity="0.1" d="M58.5316 42.6152C58.5316 42.6152 60.0925 50.7748 59.3838 53.9242C58.9508 55.7563 59.0149 57.6721 59.5693 59.4707" fill="black"/>
<path opacity="0.1" d="M33.2984 46.0497C33.2984 46.0497 32.6184 51.4894 33.751 52.6334L33.2984 46.0497Z" fill="black"/>
<path d="M72.9464 113.087C73.0342 113.087 73.1184 113.052 73.1805 112.989C73.2426 112.926 73.2775 112.841 73.2775 112.753C73.2775 112.664 73.2426 112.579 73.1805 112.517C73.1184 112.454 73.0342 112.419 72.9464 112.419C72.8585 112.419 72.7743 112.454 72.7122 112.517C72.6501 112.579 72.6152 112.664 72.6152 112.753C72.6152 112.841 72.6501 112.926 72.7122 112.989C72.7743 113.052 72.8585 113.087 72.9464 113.087Z" fill="black"/>
<g opacity="0.5">
<path opacity="0.5" d="M174.918 74.1919V74.0071L114.679 27.3113C114.641 27.2829 114.595 27.2676 114.548 27.2676C114.501 27.2676 114.455 27.2829 114.417 27.3113L54.176 74.0071V146.388H54.2908V146.504H175.035V74.1229L174.918 74.1919Z" fill="url(#paint2_linear_42_356)"/>
</g>
<path d="M172.839 144.369H56.266V74.4811L114.553 29.2987L172.839 74.4811V144.369Z" fill="white"/>
<path d="M168.645 140.227H60.4614V75.3692L114.553 33.4386L168.645 75.3692V140.227Z" fill="#E0E0E0"/>
<path d="M132.903 32.4695L66.9116 49.9102L88.9149 134.522L154.907 117.082L132.903 32.4695Z" fill="#9347B2"/>
<path d="M148.995 45.3241H80.7733V132.795H148.995V45.3241Z" fill="#F5F5F5"/>
<path opacity="0.05" d="M56.8182 74.5924L115.105 109.536L56.8182 144.48V74.5924Z" fill="black"/>
<path d="M56.3762 74.5924L114.663 109.536L56.3762 144.48V74.5924Z" fill="white"/>
<path opacity="0.05" d="M172.509 74.5924L114.222 109.536L172.509 144.48V74.5924Z" fill="black"/>
<path d="M172.95 74.5924L114.663 109.536L172.95 144.48V74.5924Z" fill="white"/>
<path opacity="0.05" d="M56.3762 143.368L114.663 97.5175L172.95 143.368H56.3762Z" fill="black"/>
<path d="M56.3762 144.48L114.663 98.6304L172.95 144.48H56.3762Z" fill="white"/>
<path d="M68.22 149.789C68.22 149.789 65.2924 139.773 68.7697 132.397C70.2472 129.314 70.6927 125.83 70.0392 122.47C69.7169 120.878 69.2506 119.318 68.6461 117.812" stroke="#535461" stroke-width="2" stroke-miterlimit="10"/>
<path d="M70.8083 113.151C70.8083 114.38 68.6005 117.939 68.6005 117.939C68.6005 117.939 66.3926 114.378 66.3926 113.151C66.3926 112.561 66.6252 111.995 67.0393 111.577C67.4533 111.16 68.0149 110.925 68.6005 110.925C69.186 110.925 69.7476 111.16 70.1616 111.577C70.5757 111.995 70.8083 112.561 70.8083 113.151Z" fill="#9347B2"/>
<path d="M74.4614 119.953C73.799 120.984 70.0281 122.764 70.0281 122.764C70.0281 122.764 70.0965 118.566 70.7589 117.536C71.0891 117.07 71.5848 116.75 72.143 116.643C72.7011 116.536 73.2787 116.65 73.7556 116.961C74.2325 117.273 74.572 117.757 74.7034 118.314C74.8349 118.872 74.7482 119.459 74.4614 119.953Z" fill="#9347B2"/>
<path d="M74.2936 131.574C73.2051 132.126 69.0588 131.745 69.0588 131.745C69.0588 131.745 71.2203 128.157 72.3066 127.605C72.5665 127.458 72.8533 127.366 73.1495 127.334C73.4457 127.302 73.7452 127.331 74.0301 127.419C74.315 127.507 74.5793 127.652 74.8071 127.845C75.0349 128.039 75.2216 128.277 75.3557 128.545C75.4899 128.813 75.5689 129.106 75.5879 129.406C75.6069 129.705 75.5655 130.006 75.4663 130.289C75.367 130.572 75.212 130.832 75.0105 131.053C74.8089 131.274 74.5651 131.452 74.2936 131.576V131.574Z" fill="#9347B2"/>
<path d="M72.2111 140.34C71.2309 141.071 67.0801 141.4 67.0801 141.4C67.0801 141.4 68.608 137.496 69.5882 136.766C70.0599 136.449 70.6346 136.327 71.1931 136.425C71.7517 136.523 72.2513 136.834 72.5885 137.294C72.9257 137.753 73.0746 138.326 73.0044 138.893C72.9341 139.46 72.6501 139.979 72.2111 140.34Z" fill="#9347B2"/>
<path d="M65.3905 123C66.2737 123.855 70.3339 124.743 70.3339 124.743C70.3339 124.743 69.3381 120.667 68.4638 119.813C68.0386 119.434 67.4849 119.234 66.9177 119.256C66.3505 119.278 65.8135 119.519 65.418 119.93C65.0225 120.34 64.799 120.888 64.7939 121.46C64.7888 122.032 65.0025 122.585 65.3905 123.002V123Z" fill="#9347B2"/>
<path d="M63.0814 133.285C64.1699 133.837 68.3162 133.456 68.3162 133.456C68.3162 133.456 66.1548 129.869 65.0685 129.317C64.5498 129.08 63.9607 129.055 63.424 129.246C62.8873 129.437 62.4446 129.83 62.1882 130.342C61.9319 130.855 61.8817 131.447 62.0481 131.996C62.2145 132.544 62.5847 133.007 63.0814 133.287V133.285Z" fill="#9347B2"/>
<path d="M62.1975 143.59C63.1778 144.32 67.3285 144.65 67.3285 144.65C67.3285 144.65 65.8007 140.746 64.8204 140.016C64.589 139.825 64.3215 139.684 64.0343 139.6C63.747 139.517 63.4459 139.493 63.1493 139.53C62.8526 139.568 62.5666 139.665 62.3085 139.817C62.0504 139.969 61.8257 140.173 61.6479 140.415C61.4701 140.657 61.343 140.934 61.2742 141.227C61.2055 141.52 61.1965 141.825 61.2479 142.121C61.2993 142.418 61.41 142.702 61.5732 142.954C61.7364 143.207 61.9489 143.423 62.1975 143.59Z" fill="#9347B2"/>
<path opacity="0.5" d="M112.124 49.3303H84.7473V51.5561H112.124V49.3303Z" fill="#9347B2"/>
<path opacity="0.5" d="M143.917 58.2333H84.7473V60.459H143.917V58.2333Z" fill="#9347B2"/>
<path opacity="0.5" d="M143.917 64.0203H84.7473V66.246H143.917V64.0203Z" fill="#9347B2"/>
<path opacity="0.4" d="M143.917 69.807H84.7473V72.0327H143.917V69.807Z" fill="#9347B2"/>
<path opacity="0.4" d="M143.917 75.594H84.7473V77.8197H143.917V75.594Z" fill="#9347B2"/>
<path opacity="0.3" d="M118.527 81.3809H84.7473V83.6066H118.527V81.3809Z" fill="#9347B2"/>
<path opacity="0.3" d="M130.891 87.1677H84.7473V89.3934H130.891V87.1677Z" fill="#9347B2"/>
</g>
<defs>
<linearGradient id="paint0_linear_42_356" x1="64.9273" y1="-22.7615" x2="75.7493" y2="242.697" gradientUnits="userSpaceOnUse">
<stop stop-color="#FD749B"/>
<stop offset="1" stop-color="#281AC8"/>
</linearGradient>
<linearGradient id="paint1_linear_42_356" x1="23.6562" y1="79.6738" x2="70.9081" y2="79.6738" gradientUnits="userSpaceOnUse">
<stop stop-color="#808080" stop-opacity="0.25"/>
<stop offset="0.54" stop-color="#808080" stop-opacity="0.12"/>
<stop offset="1" stop-color="#808080" stop-opacity="0.1"/>
</linearGradient>
<linearGradient id="paint2_linear_42_356" x1="77020.6" y1="88327.6" x2="77020.6" y2="24446.8" gradientUnits="userSpaceOnUse">
<stop stop-color="#808080" stop-opacity="0.25"/>
<stop offset="0.54" stop-color="#808080" stop-opacity="0.12"/>
<stop offset="1" stop-color="#808080" stop-opacity="0.1"/>
</linearGradient>
<clipPath id="clip0_42_356">
<rect width="212" height="162" fill="white" transform="translate(0.5 0.842773)"/>
</clipPath>
</defs>
</svg>
