<svg width="272" height="208" viewBox="0 0 272 208" fill="none" xmlns="http://www.w3.org/2000/svg">
<g clip-path="url(#clip0_42_879)">
<path opacity="0.1" d="M23.643 96.1358C19.893 97.3631 16.393 100.333 15.448 104.453C14.3755 109.187 16.8455 113.97 17.198 118.824C18.3505 134.755 -2.58454 145.996 0.400463 161.651C1.58796 167.865 6.38296 172.446 11.1105 176.215C18.678 182.254 27.073 187.586 36.3605 189.093C50.4705 191.38 65.2155 184.653 78.933 188.906C89.9955 192.334 98.4605 202.387 109.448 206.097C117.813 208.922 126.82 207.807 135.518 206.665C140.195 206.051 145.11 205.34 148.893 202.297C155.935 196.632 156.36 185.447 161.07 177.43C168.338 165.055 184.273 162.638 197.635 165.043C210.998 167.447 223.965 173.375 237.503 172.874C240.395 172.772 243.363 172.343 245.883 170.808C248.95 168.94 251.025 165.651 252.858 162.395C264.278 142.109 270.64 118.511 271.093 94.7558C271.171 90.6509 271.038 86.3682 269.255 82.7342C267.005 78.1484 262.505 75.411 258.005 73.5626C247.235 69.1497 235.338 68.4359 224.78 63.4269C214.598 58.6007 206.348 50.1329 197.483 42.8898C179.9 28.5014 159.233 18.5434 137.603 14.0228C132.51 12.9584 127.225 12.197 122.165 13.4267C116.335 14.8443 111.31 18.7789 106.793 23.0115C94.7705 34.2818 85.138 48.1769 74.063 60.5241C66.4752 68.9777 58.1515 76.7381 49.1905 83.7134C45.083 86.9117 40.733 90.7085 36.1655 93.0728C31.988 95.2342 28.0605 94.6907 23.643 96.1358Z" fill="url(#paint0_linear_42_879)"/>
<path d="M253.747 104.25C248.247 103.098 237.834 100.937 226.049 98.5427C208.602 94.9988 204.049 108.413 204.049 108.413C204.049 115.245 181.299 143.586 181.299 143.586L174.514 128.359C175.557 128.52 176.622 128.448 177.634 128.149C181.519 126.986 183.439 122.596 184.062 118.586C184.991 112.547 184.142 106.368 181.619 100.804C180.462 98.2647 178.962 95.8754 178.032 93.2456C174.109 82.2107 180.904 69.4377 176.794 58.4454C175.097 53.9097 171.712 50.2306 169.372 45.9929C164.122 36.4633 164.347 24.5418 158.622 15.2851C153.252 6.60694 142.669 1.46266 132.532 2.60973C126.554 3.28595 122.282 5.42481 116.712 2.86018C112.009 0.701289 106.364 -1.71306 101.522 1.68807C97.3916 4.5883 96.6891 10.3011 94.4341 14.8167C90.4741 22.7485 81.0791 27.9254 79.9741 36.7237C79.7016 38.8926 79.9741 41.1417 79.3416 43.2355C77.5366 49.1536 69.6766 50.9018 66.4566 56.1838C63.3041 61.3531 66.4891 69.1697 72.3541 70.6599C74.8541 71.2961 77.5441 70.9104 80.0416 71.5841C82.3841 72.2102 84.6566 74.4042 84.2516 76.6958L79.0566 77.6425L64.1091 79.3055L61.7966 79.4508C61.7966 79.4508 61.7966 79.4908 61.7966 79.5635L61.6716 79.5785L61.7941 79.6787C61.7941 79.8565 61.7941 80.1345 61.7941 80.5002C57.5866 82.1506 50.7691 86.5561 48.1941 98.1119C47.6042 100.749 46.4122 103.214 44.7116 105.312C40.8791 110.046 34.5191 119.29 34.8741 128.164C35.3741 140.816 35.3741 145.878 52.0691 142.334C56.2866 141.44 60.8741 139.607 65.3766 137.368C65.6391 142.642 66.3216 147.814 67.7466 151.696C72.2991 164.096 62.6891 207.875 62.6891 207.875H155.497C155.497 207.875 147.657 182.063 140.072 168.905C134.699 159.583 136.684 153.945 138.299 151.448C139.7 149.326 140.746 146.99 141.397 144.531C141.672 143.451 141.939 142.226 142.169 140.869C143.877 142.269 145.699 143.526 147.762 144.278C149.672 144.971 151.844 145.162 153.777 144.626C157.732 149.47 162.149 154.782 166.877 160.302C185.084 181.557 190.142 168.399 190.142 168.399C190.142 168.399 208.602 133.225 211.142 122.596C213.682 111.967 219.234 112.473 219.234 112.473C234.454 116.327 247.944 110.732 254.212 107.366C254.516 107.204 254.763 106.951 254.919 106.643C255.074 106.334 255.13 105.985 255.079 105.644C255.028 105.302 254.872 104.984 254.634 104.735C254.395 104.485 254.085 104.316 253.747 104.25ZM65.9666 110.609C67.2364 109.159 68.3276 107.562 69.2166 105.851H69.2641C68.8032 107.62 68.209 109.351 67.4866 111.03C66.0691 111.303 65.2141 111.446 65.2141 111.446L65.9666 110.609Z" fill="url(#paint1_linear_42_879)"/>
<path d="M100.859 3.93954C96.7767 6.80972 96.0817 12.4549 93.8592 16.933C89.9442 24.7821 80.6567 29.9089 79.5642 38.6146C79.2942 40.7609 79.5642 42.9874 78.9392 45.0562C77.1567 50.9142 69.3842 52.6449 66.1892 57.8718C63.0717 62.986 66.2217 70.7224 72.0192 72.1976C74.4967 72.8287 77.1492 72.4481 79.6192 73.1117C82.0892 73.7754 84.4817 76.1998 83.6642 78.6217C83.0567 80.4249 80.9142 81.4518 80.5242 83.3151C80.1842 84.918 81.2742 86.4458 82.3292 87.693C83.6692 89.2709 85.0992 90.8237 86.8917 91.858C91.8217 94.7032 97.9717 92.9951 103.657 92.8073C110.535 92.6027 117.277 94.75 122.774 98.8957C124.347 100.09 125.827 101.47 126.802 103.191C129.979 108.796 126.974 115.831 127.649 122.24C128.414 129.523 133.844 135.369 139.327 140.21C141.517 142.144 143.827 144.05 146.577 145.049C149.327 146.048 152.614 145.993 154.927 144.21C157.357 142.337 158.202 139.018 158.217 135.945C158.232 132.872 157.587 129.814 157.742 126.746C157.817 125.243 158.364 123.458 159.827 123.162C160.559 123.014 161.302 123.312 161.969 123.648C166.634 125.997 171.109 130.598 176.109 129.105C179.952 127.956 181.859 123.61 182.464 119.641C183.381 113.666 182.542 107.554 180.049 102.049C178.904 99.5444 177.422 97.1726 176.502 94.5679C172.637 83.6257 179.349 70.9804 175.289 60.1083C173.612 55.6202 170.264 51.9786 167.952 47.7836C162.752 38.3516 162.984 26.5528 157.322 17.3913C152.014 8.80081 141.549 3.71163 131.529 4.84618C125.619 5.51488 121.397 7.6337 115.889 5.09663C111.239 2.96529 105.659 0.563457 100.859 3.93954Z" fill="#141720"/>
<path d="M140.754 83.2287C140.754 83.2287 157.004 78.2197 163.504 107.272L180.004 144.339C180.004 144.339 202.504 116.288 202.504 109.526C202.504 109.526 207.004 96.2522 224.254 99.7585C235.906 102.128 246.189 104.267 251.636 105.406C251.967 105.475 252.269 105.645 252.501 105.891C252.733 106.138 252.884 106.451 252.933 106.786C252.982 107.121 252.926 107.464 252.774 107.767C252.623 108.07 252.381 108.318 252.084 108.479C245.889 111.81 232.551 117.348 217.504 113.533C217.504 113.533 212.004 113.032 209.504 123.551C207.004 134.07 188.754 168.883 188.754 168.883C188.754 168.883 183.754 181.907 165.754 160.869C147.754 139.831 134.254 121.798 134.254 121.798L140.754 83.2287Z" fill="#F89D8F"/>
<path d="M140.485 86.7814L138.33 93.8917L136.2 100.924L131.985 114.832L111.985 118.589L105.467 114.424L97.485 109.322L90.6025 104.563L80.485 97.5508L72.235 80.2697C72.235 80.2697 74.51 79.8664 81.6025 78.5741L91.485 76.7633C98.31 75.5111 100.89 70.4219 101.677 65.2426C102.62 59.0414 100.985 52.72 100.985 52.72H126.235C126.235 52.72 129.06 56.9777 128.618 64.3309C128.479 66.5069 128.099 68.6606 127.485 70.7525C125.265 78.4514 130.277 81.021 133.677 81.855C134.597 82.0887 135.537 82.2289 136.485 82.2733L140.485 86.7814Z" fill="#F89D8F"/>
<path opacity="0.1" d="M128.609 64.331C124.739 67.199 120.092 68.8222 115.281 68.9859C110.471 69.1496 105.724 67.846 101.669 65.2477C102.611 59.0465 100.977 52.7251 100.977 52.7251H126.226C126.226 52.7251 129.059 56.9652 128.609 64.331Z" fill="black"/>
<path d="M114.352 68.038C127.468 68.038 138.102 57.3856 138.102 44.2451C138.102 31.1047 127.468 20.4522 114.352 20.4522C101.235 20.4522 90.6016 31.1047 90.6016 44.2451C90.6016 57.3856 101.235 68.038 114.352 68.038Z" fill="#F89D8F"/>
<path opacity="0.1" d="M140.485 86.7815L138.33 93.8918L136.2 100.925L131.985 114.832L111.985 118.589L105.467 114.424L97.485 109.322L90.6025 104.564L80.485 97.5509L72.235 80.2698C72.235 80.2698 74.51 79.8665 81.6025 78.5742C86.6025 92.5118 92.9275 97.7012 98.635 99.3842C102.047 100.386 105.237 100.136 107.78 99.7599C111.048 99.236 114.39 99.4067 117.587 100.261C125.262 102.4 129.302 98.3048 131.425 93.1079C132.995 89.2635 133.515 84.813 133.675 81.8376C134.594 82.0713 135.535 82.2114 136.482 82.2559L140.485 86.7815Z" fill="black"/>
<path d="M62.4834 208C62.4834 208 71.9834 164.672 67.4834 152.4C66.1959 148.893 65.5209 144.305 65.2184 139.557C64.4684 127.718 65.9834 114.832 65.9834 114.832C66.1984 114.414 66.4009 113.998 66.5959 113.58C67.0959 112.511 67.5359 111.466 67.9159 110.444C73.2734 96.0031 66.6084 86.3883 63.2284 82.7117C62.6863 82.1083 62.1015 81.545 61.4784 81.0261L80.6034 78.8973C85.6309 93.3508 92.0784 98.683 97.8784 100.391C101.291 101.393 104.481 101.142 107.023 100.767C110.291 100.243 113.633 100.413 116.831 101.268C124.506 103.406 128.546 99.3116 130.668 94.1147C133.303 87.6631 132.978 79.5159 132.978 79.5159L143.978 82.7718C143.978 82.7718 143.008 88.8077 142.131 96.7395C141.923 98.6003 141.721 100.564 141.538 102.58C140.788 110.99 140.343 120.289 141.228 126.601C142.128 132.838 141.807 139.19 140.286 145.305C139.644 147.738 138.61 150.051 137.226 152.152C135.628 154.621 133.666 160.204 138.976 169.433C146.476 182.457 154.226 208.003 154.226 208.003L62.4834 208Z" fill="#9347B2"/>
<path d="M143.859 82.8995C143.859 82.8995 152.942 97.1753 141.024 109.447C129.107 121.72 133.859 104.438 133.859 104.438L136.859 84.4022L143.859 82.8995Z" fill="#9347B2"/>
<path opacity="0.1" d="M63.2298 82.7115C63.9076 82.4967 64.6027 82.3408 65.3073 82.2457C68.5573 83.7985 70.3573 88.1087 71.3348 92.6093C71.9872 95.6619 72.0209 98.8146 71.4339 101.88C70.8468 104.946 69.651 107.863 67.9173 110.457C73.2748 96.003 66.6098 86.3881 63.2298 82.7115Z" fill="black"/>
<path opacity="0.1" d="M141.545 102.583C136.207 102.936 129.235 102.31 129.235 102.31C130.175 106.617 128.235 109.983 126.235 112.177C125.47 113.026 124.505 113.669 123.427 114.046C122.35 114.424 121.196 114.524 120.07 114.339C108.535 112.335 90.9946 122.854 90.9946 122.854C90.9946 122.854 78.4496 133.005 65.2196 139.564C64.4696 127.725 65.9846 114.84 65.9846 114.84C66.1996 114.421 66.4021 114.006 66.5971 113.587C71.9421 112.586 91.3621 108.628 95.2346 102.818C95.8096 101.954 96.7346 101.145 97.8846 100.394C101.192 98.2497 106.485 96.5692 111.517 95.342C117.781 93.8028 124.267 93.3907 130.675 94.1248C133.425 94.4405 136.147 94.9723 138.815 95.7152C139.98 96.0383 141.105 96.3864 142.137 96.7495C144.967 97.7513 147.112 98.8709 147.485 100.063C147.987 101.666 145.135 102.347 141.545 102.583Z" fill="black"/>
<path opacity="0.1" d="M136.199 100.924C132.352 100.859 128.984 100.556 128.984 100.556C129.924 104.864 127.984 108.23 125.984 110.424C125.219 111.273 124.254 111.915 123.177 112.293C122.1 112.671 120.945 112.771 119.819 112.586C115.472 111.834 110.269 112.859 105.477 114.424L97.4842 109.322L90.6017 104.564C92.6017 103.489 94.1492 102.309 94.9842 101.057C97.2042 97.7212 104.484 95.2392 111.267 93.5813C120.168 91.3826 129.481 91.4895 138.329 93.8918L138.564 93.9544C142.912 95.1691 146.727 96.6743 147.234 98.3023C147.964 100.644 141.609 101.02 136.199 100.924Z" fill="black"/>
<path d="M65.0565 80.9886C65.0565 80.9886 51.979 82.321 48.1665 99.3041C47.5771 101.944 46.3879 104.412 44.6915 106.517C40.9015 111.208 34.634 120.342 34.984 129.11C35.484 141.633 35.484 146.642 51.984 143.136C68.484 139.629 90.734 121.597 90.734 121.597C90.734 121.597 108.274 111.095 119.809 113.081C120.935 113.267 122.089 113.166 123.167 112.788C124.244 112.411 125.209 111.768 125.974 110.92C127.974 108.726 129.926 105.36 128.974 101.052C128.974 101.052 148.474 102.805 147.224 98.7982C146.724 97.1702 142.901 95.665 138.554 94.4528C129.637 91.99 120.238 91.8606 111.256 94.0772C104.461 95.7377 97.194 98.2196 94.974 101.553C90.474 108.315 64.974 112.573 64.974 112.573L65.724 111.729C68.1458 108.989 69.8923 105.718 70.8232 102.179C71.754 98.6404 71.8434 94.932 71.084 91.3522C70.109 86.8516 68.3165 82.5414 65.0565 80.9886Z" fill="#F89D8F"/>
<path d="M61.6098 80.8958C61.6098 80.8958 60.8598 111.2 72.1098 106.692C83.3598 102.184 74.6098 80.8958 74.6098 80.8958L69.6098 80.3949L61.6098 80.8958Z" fill="#9347B2"/>
<path opacity="0.1" d="M95.2777 44.8632C102.695 44.0384 110.01 42.4634 117.11 40.1623C118.935 39.5712 120.918 38.7848 121.77 37.0667C121.99 36.6234 122.155 36.0974 122.588 35.8545C122.955 35.6466 123.41 35.7117 123.823 35.8069C126.26 36.3855 128.353 37.9157 130.675 38.8549C132.998 39.7941 135.955 40.0145 137.74 38.2513C139.848 36.1676 139.15 32.5861 137.763 29.9689C132.61 20.2313 120.54 15.7858 109.56 16.5923C108.018 16.705 106.45 16.9129 105.06 17.5941C102.12 19.0091 100.51 22.1573 98.9177 25.01C95.8202 30.5424 79.4427 46.6189 95.2777 44.8632Z" fill="black"/>
<path d="M95.2777 44.1119C102.695 43.2871 110.01 41.712 117.11 39.411C118.935 38.8199 120.918 38.0335 121.77 36.3154C121.99 35.8721 122.155 35.3461 122.588 35.1032C122.955 34.8953 123.41 34.9604 123.823 35.0556C126.26 35.6342 128.353 37.1644 130.675 38.1036C132.998 39.0428 135.955 39.2632 137.74 37.5C139.848 35.4163 139.15 31.8348 137.763 29.2176C132.61 19.48 120.54 15.0345 109.56 15.841C108.018 15.9537 106.45 16.1615 105.06 16.8428C102.12 18.2578 100.51 21.406 98.9177 24.2586C95.8202 29.7911 79.4427 45.8676 95.2777 44.1119Z" fill="#141720"/>
<path d="M256.42 70.6274H205.67C205.057 70.6274 204.469 70.8715 204.035 71.3059C203.601 71.7404 203.358 72.3297 203.358 72.9441V102.748C203.358 103.362 203.601 103.951 204.035 104.386C204.469 104.82 205.057 105.064 205.67 105.064H256.42C257.034 105.064 257.622 104.82 258.055 104.386C258.489 103.951 258.733 103.362 258.733 102.748V72.9441C258.733 72.3297 258.489 71.7404 258.055 71.3059C257.622 70.8715 257.034 70.6274 256.42 70.6274Z" fill="url(#paint2_linear_42_879)"/>
<path d="M255.104 71.0331H206.977C205.332 71.0331 203.999 72.3686 203.999 74.016V101.678C203.999 103.326 205.332 104.661 206.977 104.661H255.104C256.748 104.661 258.081 103.326 258.081 101.678V74.016C258.081 72.3686 256.748 71.0331 255.104 71.0331Z" fill="#B247A7"/>
<path d="M258.081 76.9186H203.999V83.0847H258.081V76.9186Z" fill="#FF8000"/>
<path d="M258.081 76.9186H203.999V83.0847H258.081V76.9186Z" fill="#9347B2"/>
<path d="M252.952 87.6607H209.127V90.6511H252.952V87.6607Z" fill="#D6D6E3"/>
<path d="M212.764 102.42C215.134 102.42 217.054 100.495 217.054 98.1218C217.054 95.7482 215.134 93.824 212.764 93.824C210.395 93.824 208.474 95.7482 208.474 98.1218C208.474 100.495 210.395 102.42 212.764 102.42Z" fill="#FF8000"/>
<path d="M212.764 102.42C215.134 102.42 217.054 100.495 217.054 98.1218C217.054 95.7482 215.134 93.824 212.764 93.824C210.395 93.824 208.474 95.7482 208.474 98.1218C208.474 100.495 210.395 102.42 212.764 102.42Z" fill="#9347B2"/>
<path opacity="0.05" d="M63.3593 112.703C63.3593 112.703 58.6093 115.23 57.8218 118.318C57.0343 121.406 56.1093 121.97 56.1093 121.97" fill="black"/>
<path opacity="0.05" d="M179.859 144.26C179.859 144.26 177.609 152.024 179.859 153.026V144.26Z" fill="black"/>
<path opacity="0.05" d="M67.6092 153.026C67.6092 153.026 87.1092 157.284 101.609 148.518H107.859C107.859 148.518 126.609 158.035 135.609 155.28" fill="black"/>
<path d="M216.086 147.662C216.515 146.678 215.271 145.185 213.309 144.327C211.346 143.468 209.407 143.57 208.979 144.554C208.55 145.538 209.794 147.031 211.757 147.889C213.719 148.747 215.658 148.646 216.086 147.662Z" fill="#8ED16F"/>
<path opacity="0.1" d="M216.086 147.662C216.515 146.678 215.271 145.185 213.309 144.327C211.346 143.468 209.407 143.57 208.979 144.554C208.55 145.538 209.794 147.031 211.757 147.889C213.719 148.747 215.658 148.646 216.086 147.662Z" fill="black"/>
<path d="M240.845 116.741C241.273 115.758 240.03 114.264 238.067 113.406C236.104 112.548 234.166 112.65 233.737 113.633C233.309 114.617 234.552 116.11 236.515 116.969C238.478 117.827 240.416 117.725 240.845 116.741Z" fill="#8ED16F"/>
<path opacity="0.1" d="M240.845 116.741C241.273 115.758 240.03 114.264 238.067 113.406C236.104 112.548 234.166 112.65 233.737 113.633C233.309 114.617 234.552 116.11 236.515 116.969C238.478 117.827 240.416 117.725 240.845 116.741Z" fill="black"/>
<path d="M258.539 152.256C259.591 152.05 260.109 150.175 259.697 148.07C259.285 145.965 258.099 144.426 257.048 144.632C255.996 144.838 255.478 146.713 255.89 148.818C256.302 150.923 257.488 152.462 258.539 152.256Z" fill="#8ED16F"/>
<path opacity="0.1" d="M258.539 152.256C259.591 152.05 260.109 150.175 259.697 148.07C259.285 145.965 258.099 144.426 257.048 144.632C255.996 144.838 255.478 146.713 255.89 148.818C256.302 150.923 257.488 152.462 258.539 152.256Z" fill="black"/>
<path d="M237.464 190.146C237.893 189.163 236.649 187.67 234.687 186.811C232.724 185.953 230.786 186.055 230.357 187.039C229.928 188.022 231.172 189.516 233.135 190.374C235.097 191.232 237.036 191.13 237.464 190.146Z" fill="#8ED16F"/>
<path d="M195.749 181.944C196.177 180.961 194.934 179.468 192.971 178.609C191.008 177.751 189.07 177.853 188.641 178.837C188.213 179.82 189.456 181.314 191.419 182.172C193.381 183.03 195.32 182.928 195.749 181.944Z" fill="#8ED16F"/>
<path opacity="0.1" d="M195.749 181.944C196.177 180.961 194.934 179.468 192.971 178.609C191.008 177.751 189.07 177.853 188.641 178.837C188.213 179.82 189.456 181.314 191.419 182.172C193.381 183.03 195.32 182.928 195.749 181.944Z" fill="black"/>
<path opacity="0.3" d="M34.6669 42.403C42.7673 42.403 49.3339 35.8209 49.3339 27.7015C49.3339 19.5821 42.7673 13 34.6669 13C26.5666 13 20 19.5821 20 27.7015C20 35.8209 26.5666 42.403 34.6669 42.403Z" fill="#A04DAF"/>
</g>
<defs>
<linearGradient id="paint0_linear_42_879" x1="149.159" y1="-17.9134" x2="157.086" y2="327.838" gradientUnits="userSpaceOnUse">
<stop stop-color="#FD749B"/>
<stop offset="1" stop-color="#281AC8"/>
</linearGradient>
<linearGradient id="paint1_linear_42_879" x1="144.967" y1="207.875" x2="144.967" y2="2.03621e-05" gradientUnits="userSpaceOnUse">
<stop stop-color="#808080" stop-opacity="0.25"/>
<stop offset="0.54" stop-color="#808080" stop-opacity="0.12"/>
<stop offset="1" stop-color="#808080" stop-opacity="0.1"/>
</linearGradient>
<linearGradient id="paint2_linear_42_879" x1="54566.1" y1="15714" x2="54566.1" y2="10978.6" gradientUnits="userSpaceOnUse">
<stop stop-color="#808080" stop-opacity="0.25"/>
<stop offset="0.54" stop-color="#808080" stop-opacity="0.12"/>
<stop offset="1" stop-color="#808080" stop-opacity="0.1"/>
</linearGradient>
<clipPath id="clip0_42_879">
<rect width="271" height="208" fill="white" transform="translate(0.109375)"/>
</clipPath>
</defs>
</svg>
