<svg width="287" height="225" viewBox="0 0 287 225" fill="none" xmlns="http://www.w3.org/2000/svg">
<g clip-path="url(#clip0_42_661)">
<path opacity="0.1" d="M270.476 142.008C260.745 154.422 264.517 172.569 270.709 187.097C272.773 191.962 275.132 197.107 274.248 202.324C273.177 208.702 267.498 213.369 261.533 215.84C250.661 220.348 237.648 219.272 227.664 213.044C219.03 207.662 212.849 198.907 204.074 193.77C189.38 185.172 170.679 188.418 154.724 194.341C143.436 198.532 131.096 203.979 119.879 199.602C111.985 196.519 106.53 189.021 103.557 181.07C102.121 177.228 101.08 173.09 98.341 170.034C96.7104 168.225 94.5843 166.942 92.4082 165.857C72.519 155.976 47.3987 161.267 28.0786 150.304C15.0305 142.9 6.67968 128.932 2.97902 114.369C-0.721633 99.8069 -0.288168 84.535 0.649529 69.535C1.31594 58.8769 2.51313 47.4975 9.30995 39.269C16.499 30.5675 28.8335 27.331 39.9768 28.9833C51.12 30.6355 61.2312 36.5379 70.1334 43.4778C81.2472 52.1557 91.5501 62.9616 105.194 66.4788C114.485 68.8729 124.26 67.5636 133.841 67.1084C149.861 66.3488 165.888 68.0365 181.82 69.8838C197.07 71.6572 212.433 73.5961 226.965 78.5704C237.247 82.0906 245.492 88.4778 255.199 92.9409C261.527 95.8493 268.43 96.6532 274.422 100.36C281.793 104.923 288.576 112.862 286.679 122.155C284.881 130.986 275.648 135.417 270.476 142.008Z" fill="url(#paint0_linear_42_661)"/>
<path d="M225.446 186.021C224.288 184.656 222.973 183.432 221.53 182.373C221.831 182.155 222.126 181.935 222.415 181.714C226.136 178.942 229.324 176.098 230.008 174.056C231.836 168.638 250.581 158.707 250.581 158.707C250.581 158.707 231.379 162.319 221.321 156.449C215.32 152.947 206.064 152.338 199.574 152.418L199.621 152.305L199.71 152.11C199.76 152.001 199.81 151.895 199.863 151.785C199.916 151.676 199.949 151.608 199.996 151.519L200.034 151.448C200.102 151.318 200.173 151.188 200.246 151.058C200.426 150.739 200.618 150.42 200.821 150.1V150.083C201.345 149.275 201.913 148.498 202.523 147.754L202.546 147.724C203.033 147.133 203.54 146.542 204.05 146.001L204.08 145.968L204.439 145.587L204.498 145.528C204.985 145.017 205.472 144.532 205.943 144.08L206.052 143.976L206.347 143.707L206.483 143.58L206.745 143.335L206.884 143.208L207.276 142.853L207.488 142.664L207.648 142.525L207.881 142.321L207.999 142.221L208.293 141.961L208.32 141.937C209.272 141.121 209.901 140.645 209.901 140.645H209.886C209.583 140.862 209.267 141.06 208.939 141.236L208.895 141.257L208.6 141.405L208.518 141.443L208.255 141.562L208.108 141.621L207.901 141.706L207.701 141.78L207.539 141.839L207.285 141.925L207.167 141.964L206.843 142.061L206.79 142.076L206.406 142.179C199.736 143.902 190.256 141.355 189.386 141.112L189.33 141.098C189.33 141.098 185.52 140.308 180.584 139.599C182.872 134.905 185.164 130.49 187.287 126.559C189.118 130.578 192.23 133.874 196.133 135.928C196.28 135.763 196.428 135.591 196.552 135.42C196.994 135.674 197.256 135.795 197.256 135.795C198.495 134.375 199.357 132.665 199.763 130.824C201.032 132.03 202.467 133.049 204.024 133.85C204.151 133.706 204.274 133.56 204.392 133.41C204.572 133.504 204.669 133.552 204.669 133.552C207.138 130.764 207.792 127.165 207.515 123.502C212.103 125.253 217.169 125.275 221.772 123.565C221.772 123.547 221.772 123.526 221.772 123.508C222.197 123.364 222.43 123.263 222.43 123.263C222.058 120.523 220.66 118.238 218.761 116.341C227.572 116.524 232.326 111.05 232.326 111.05L232.275 110.982C232.638 110.642 232.821 110.432 232.821 110.432C231.656 108.788 230.187 107.383 228.492 106.295C232.514 103.909 234.257 100.821 234.257 100.821C234.157 100.726 234.051 100.634 233.962 100.543C234.183 100.224 234.292 100.032 234.292 100.032C234.071 99.8217 233.841 99.6236 233.611 99.4404C233.762 99.2128 233.835 99.0827 233.835 99.0827C230.297 95.7458 225.603 94.5428 220.946 94.4039C223.76 91.27 225.492 87.311 225.886 83.1133C222.347 81.9576 218.732 82.7556 215.441 84.4167C215.71 81.3502 215.268 78.2629 214.15 75.396C215.052 76.0928 216.023 76.695 217.048 77.1931C217.174 77.0473 217.295 76.8985 217.411 76.7468C217.591 76.8384 217.706 76.8827 217.706 76.8827C220.13 74.0571 220.725 70.4483 220.392 66.8039C225.007 68.4831 230.073 68.4264 234.649 66.6443V66.5882C235.071 66.4374 235.301 66.334 235.301 66.334C234.885 63.6 233.464 61.3359 231.524 59.468C240.334 59.5153 245.002 53.9675 245.002 53.9675L244.949 53.8995C245.306 53.5537 245.486 53.3409 245.486 53.3409C244.294 51.7196 242.802 50.343 241.092 49.2857C245.076 46.8384 246.769 43.7231 246.769 43.7231C246.665 43.6286 246.559 43.5399 246.456 43.4483C246.671 43.1231 246.777 42.931 246.777 42.931C246.553 42.7241 246.32 42.5291 246.087 42.3399C246.235 42.1094 246.309 41.9793 246.309 41.9793C242.72 38.6985 238.005 37.5665 233.334 37.5015C236.097 34.3239 237.764 30.339 238.09 26.1369C234.522 25.0345 230.934 25.8916 227.67 27.6148C227.923 24.2778 227.313 20.9317 225.9 17.8995C225.659 17.9498 225.423 18.0089 225.19 18.0709C225.134 17.9527 225.101 17.8936 225.101 17.8936C225.007 17.6867 224.948 17.5744 224.948 17.5744C220.899 18.3931 217.995 21.3163 215.931 24.8276C215.777 25.0877 215.636 25.3507 215.485 25.6167C213.95 21.8201 211.283 18.5913 207.848 16.3714C204.832 19.2236 203.962 23.2788 204.127 27.3813C204.127 27.6591 204.156 27.9369 204.174 28.2148C200.722 25.5113 196.488 24.0033 192.108 23.9172C191.486 26.3527 191.781 28.7498 192.636 31.0108C189.683 30.5555 186.666 30.7666 183.804 31.6286C183.804 31.667 183.804 31.7054 183.804 31.7438C183.383 31.8562 183.15 31.9389 183.15 31.9389C183.38 35.3734 185.214 38.2138 187.741 40.5103C183.857 41.0874 180.225 42.7897 177.293 45.4079C177.392 45.5813 177.49 45.7497 177.588 45.9133C177.382 46.0936 177.276 46.2089 177.276 46.2089C179.077 49.398 182.23 51.2128 185.747 52.197C182.166 54.3404 179.352 57.5626 177.706 61.4039C177.792 61.463 177.877 61.5192 177.963 61.5783C177.783 61.9685 177.7 62.196 177.7 62.196C180.705 64.3419 184.35 64.6699 187.968 64.0877C187.383 66.1736 187.139 68.3403 187.242 70.5044C185.022 73.6286 182.769 76.8975 180.546 80.2049C180.145 80.1813 179.921 80.1842 179.921 80.1842C179.8 80.6319 179.708 81.0871 179.647 81.5468C178.42 83.3793 177.205 85.2177 176.011 87.0414C174.487 87.094 172.976 87.3393 171.514 87.7714C171.514 87.8098 171.514 87.8483 171.514 87.8867C171.092 87.9931 170.856 88.0699 170.856 88.0699C170.856 88.1172 170.856 88.1645 170.856 88.2118C168.881 85.5369 166.115 83.5359 163.134 82.0433C167.028 80.39 170.295 77.5369 172.463 73.8975C169.748 71.3616 166.141 70.5724 162.438 70.6965C164.149 67.8204 165.091 64.5506 165.174 61.2029C164.935 61.1409 164.696 61.0936 164.458 61.0492C164.458 60.9192 164.458 60.8512 164.458 60.8512C164.458 60.6236 164.458 60.4995 164.458 60.4995C160.456 59.4768 156.549 60.8453 153.129 63.1034C152.875 63.2719 152.624 63.4433 152.377 63.6207C152.69 59.5554 151.73 55.4934 149.628 52.002C145.648 53.2581 143.065 56.5212 141.39 60.2778C141.275 60.532 141.169 60.7891 141.062 61.0492C139.159 57.12 136.023 53.9251 132.134 51.9547C130.491 53.8729 129.692 56.1547 129.45 58.5606C126.992 56.8687 124.187 55.7497 121.241 55.2857L121.2 55.3951C120.772 55.3123 120.524 55.2857 120.524 55.2857C119.203 58.4719 119.599 61.8236 120.819 64.9832C117.071 63.8276 113.069 63.7824 109.296 64.8532C109.296 65.0512 109.322 65.2463 109.346 65.4443C109.08 65.5182 108.939 65.5655 108.939 65.5655C109.139 69.2128 111.162 72.2098 113.887 74.6187C109.715 74.9953 105.764 76.6647 102.581 79.3951C102.632 79.4867 102.685 79.5724 102.735 79.6611C102.402 79.933 102.225 80.1015 102.225 80.1015C103.97 83.332 107.099 85.2088 110.605 86.2551C108.571 88.489 107.084 91.1665 106.261 94.0758C106.527 94.2177 106.792 94.3448 107.064 94.466C107.005 94.6699 106.978 94.7852 106.978 94.7852C110.738 96.8217 115.04 96.3399 119.038 94.862C117.826 103.277 122.819 109.215 122.819 109.215C123.022 109.126 123.223 109.032 123.408 108.919C123.703 109.333 123.883 109.555 123.883 109.555C125.621 108.792 127.141 107.606 128.306 106.105C128.936 107.73 129.798 109.255 130.863 110.633C131.042 110.557 131.217 110.475 131.388 110.388C131.508 110.548 131.579 110.633 131.579 110.633C133.315 109.875 134.836 108.694 136.002 107.199C136.395 115.818 136.731 130.034 135.758 144.698C135.168 153.647 134.086 162.765 132.219 170.882C128.837 156.857 124.476 139.868 120.062 125.737C115.249 110.329 105.978 95.6157 97.3769 81.9103C91.2406 72.1359 83.4678 60.1448 76.1785 50.0394C82.9429 52.2916 88.2683 49.9271 88.2683 49.9271C88.2683 49.9271 88.2683 49.8709 88.2506 49.8443C88.7254 49.6906 88.9819 49.5754 88.9819 49.5754C88.6331 47.6033 87.905 45.7181 86.8382 44.0246C91.506 43.5547 94.4135 41.4887 94.4135 41.4887C94.3633 41.3586 94.3073 41.2345 94.2542 41.1074C94.5933 40.9094 94.7732 40.7823 94.7732 40.7823C94.6612 40.4867 94.5403 40.2236 94.4135 39.9517C94.6494 39.8098 94.7732 39.7212 94.7732 39.7212C93.004 35.2167 89.2738 32.1547 85.1191 30.0768C89.013 28.4235 92.2808 25.5704 94.4488 21.931C91.7331 19.3951 88.1268 18.6059 84.4232 18.73C86.1395 15.8593 87.089 12.5938 87.1802 9.24827C86.9414 9.1862 86.7025 9.13892 86.4637 9.09458C86.4637 8.96453 86.4637 8.89655 86.4637 8.89655C86.4637 8.66897 86.4637 8.54483 86.4637 8.54483C82.4623 7.52217 78.5552 8.89064 75.1347 11.1488C74.8811 11.3172 74.6304 11.4887 74.3827 11.666C74.6964 7.60071 73.7356 3.53872 71.6345 0.0472917C67.6537 1.30345 65.0706 4.5665 63.3958 8.32315C63.2808 8.57734 63.1746 8.83448 63.0685 9.09458C61.1653 5.16534 58.0287 1.97044 54.1397 0C52.4972 1.91823 51.6981 4.2 51.4563 6.60591C48.9971 4.91359 46.1911 3.7946 43.2441 3.33104L43.2028 3.44039C42.7753 3.35763 42.5276 3.33104 42.5276 3.33104C41.2066 6.51724 41.6017 9.86896 42.8225 13.0286C39.0612 11.8648 35.0439 11.8196 31.2575 12.8985C31.2575 13.0965 31.2841 13.2916 31.3077 13.4897C31.0423 13.5635 30.9007 13.6108 30.9007 13.6108C31.1013 17.2581 33.1241 20.2552 35.8487 22.664C31.6779 23.0443 27.7286 24.7168 24.5492 27.4493C24.5993 27.5409 24.6524 27.6266 24.7025 27.7153C24.3693 27.9872 24.1924 28.1557 24.1924 28.1557C25.938 31.3862 29.0666 33.2631 32.5727 34.3094C30.5391 36.5432 29.0521 39.2207 28.2292 42.13C28.4946 42.2719 28.76 42.399 29.0312 42.5202C28.9723 42.7241 28.9457 42.8394 28.9457 42.8394C32.7054 44.8759 37.0076 44.3941 41.006 42.9163C39.7941 51.331 44.7863 57.269 44.7863 57.269C44.9898 57.1803 45.1903 57.0857 45.3761 56.9734C45.6709 57.3872 45.8508 57.6089 45.8508 57.6089C47.5884 56.8457 49.1087 55.6602 50.2739 54.1596C50.9072 55.7915 51.7733 57.3227 52.8452 58.7054C53.0241 58.6286 53.199 58.5468 53.3701 58.4601C53.491 58.6197 53.5617 58.7054 53.5617 58.7054C56.9941 57.2276 59.1348 54.2364 60.4588 50.8167C65.2741 55.8798 71.3986 56.7044 72.9614 56.8345C81.9256 69.5261 92.8094 86.0187 99.7241 100.259C99.7241 100.259 113.952 127.815 123.019 156.697C118.41 151.821 112.109 144.745 110.696 141.118C108.411 135.248 80.0649 141.118 80.0649 141.118L80.0089 141.133C79.1243 141.375 69.6589 143.923 62.9888 142.2L62.6114 142.097L62.5583 142.082L62.234 141.984L62.116 141.946L61.8624 141.86L61.7002 141.801L61.4997 141.727L61.2933 141.641L61.1459 141.582L60.8834 141.464L60.8009 141.426L60.506 141.278L60.4618 141.257C60.1339 141.081 59.8178 140.883 59.5152 140.666H59.5005C62.072 142.684 64.4421 144.948 66.5774 147.426L66.6453 147.508L67.0168 147.964L67.1141 148.085C67.236 148.238 67.3559 148.392 67.4739 148.546L67.5446 148.637C67.6803 148.819 67.8139 149.001 67.9456 149.184L68.043 149.326C68.1354 149.456 68.2258 149.587 68.3142 149.719L68.4676 149.95L68.6651 150.245L68.8273 150.505L68.9925 150.801C69.0455 150.893 69.1015 150.984 69.1517 151.076L69.1723 151.114C69.2578 151.271 69.3433 151.425 69.423 151.581L69.5055 151.75C69.5743 151.888 69.6392 152.025 69.7001 152.161L69.768 152.311L69.821 152.438C63.3338 152.359 54.0748 152.967 48.0742 156.47C38.016 162.34 18.8139 158.728 18.8139 158.728C18.8139 158.728 37.559 168.659 39.3872 174.077C40.1185 176.24 43.6835 179.335 47.7115 182.276L48.5784 182.902C47.3956 183.838 46.309 184.889 45.3348 186.041C36.1937 196.877 14.2463 207.712 14.2463 207.712H14.3112L14.4999 207.73L14.8243 207.76L15.414 207.816H15.5143C20.2086 208.259 36.7451 209.964 46.1811 212.808C46.5202 212.911 46.8504 213.015 47.1689 213.118C49.9112 214.02 65.451 212.666 75.9721 209.506C76.267 209.418 76.5618 209.338 76.8567 209.261L77.1192 209.196C77.3393 209.143 77.5605 209.093 77.7826 209.045L78.0451 208.989C78.3399 208.93 78.6348 208.874 78.9297 208.827H78.9238C79.2187 208.776 79.5135 208.735 79.8084 208.697L80.0767 208.664L80.7225 208.593L81.0026 208.566C81.27 208.543 81.5364 208.524 81.8017 208.51H81.8872C82.1821 208.496 82.4564 208.484 82.7424 208.478H83.0373H83.9219H84.5293L84.9421 208.493L85.5319 208.522L85.9536 208.552L86.3192 208.581L86.788 208.623L87.0092 208.646L87.5134 208.699L87.8732 208.744L88.1445 208.779L88.5425 208.835L88.7637 208.868C88.7637 208.93 88.7401 208.998 88.7283 209.063C88.7283 209.063 89.1087 211.188 91.6033 213.266C87.3778 214.484 83.8717 215.885 81.2533 217.404C81.097 217.49 80.9584 217.581 80.8051 217.67C80.9112 217.67 81.0144 217.646 81.1265 217.637C81.2385 217.629 81.324 217.637 81.4213 217.637H188.941C189.041 217.637 189.138 217.637 189.236 217.637C189.333 217.637 189.445 217.655 189.551 217.67C189.638 217.679 189.725 217.693 189.811 217.711C189.904 217.724 189.995 217.744 190.085 217.77C189.888 217.644 189.692 217.522 189.495 217.404C186.222 215.489 181.563 213.789 175.857 212.379C177.571 211.493 178.526 210.488 178.924 209.424C179.26 209.347 179.602 209.273 179.959 209.202C181.354 208.917 182.764 208.709 184.182 208.578L184.771 208.531L185.066 208.507C188.342 208.256 191.637 208.588 194.797 209.489C205.312 212.648 220.855 214.002 223.6 213.1C223.919 212.994 224.249 212.891 224.588 212.79C234.003 209.95 250.537 208.241 255.255 207.798H255.355L255.945 207.742L256.269 207.712L256.458 207.695H256.523C256.523 207.695 234.59 196.856 225.446 186.021ZM212.84 74.3557L212.69 74.3882C212.69 74.3409 212.711 74.2936 212.719 74.2463L212.84 74.3557ZM168.347 98.9911C167.701 99.3399 167.132 99.6886 166.654 100.011C166.247 98.5947 165.643 97.2426 164.862 95.9941C167.186 95.7687 169.445 95.0953 171.514 94.0108C170.42 95.7133 169.364 97.3773 168.347 98.9911ZM170.334 107.299C171.24 107.727 172.178 108.083 173.139 108.364C170.878 109.673 168.898 111.418 167.312 113.498C168.241 111.449 169.255 109.38 170.334 107.299ZM141.201 144.715C142.033 130.945 142.54 116.045 141.832 105.556C144.683 107.428 147.961 108.547 151.359 108.807L151.374 108.751C151.819 108.798 152.073 108.807 152.073 108.807C152.913 106.17 152.645 103.522 151.731 101.001C155.789 103.034 160.443 103.526 164.835 102.387C165.047 102.765 165.281 103.129 165.537 103.478C159.831 112.64 155.948 119.217 155.948 119.217C151.993 125.178 145.477 146.025 139.553 166.963C140.101 160.714 140.709 152.911 141.201 144.715ZM158.696 141.103C157.605 143.905 153.597 148.762 149.705 153.077C154.812 140.187 159.931 129.269 162.789 123.396C163.6 121.732 164.378 120.053 165.148 118.371C168.082 120.44 171.635 120.798 175.173 120.287C174.294 123.169 174.1 126.218 174.607 129.189C174.902 129.207 175.197 129.21 175.492 129.204C175.527 129.414 175.551 129.526 175.551 129.526C176.899 129.609 178.252 129.448 179.543 129.05C177.969 132.248 176.391 135.553 174.843 138.901C167.477 138.168 159.84 138.171 158.699 141.1L158.696 141.103ZM213.091 74.8492C213.038 74.731 213.006 74.669 213.006 74.669C212.947 74.5359 212.902 74.4414 212.879 74.3911C213.034 74.529 213.188 74.6611 213.342 74.7872L213.091 74.8492ZM192.709 72.7005C195.222 71.8374 197.448 70.1616 199.371 68.1576C200.687 72.053 203.193 75.4344 206.533 77.8226C205.458 78.9213 204.517 80.1436 203.729 81.464C203.573 81.7212 203.434 81.9842 203.272 82.2473C201.796 78.4304 199.18 75.1634 195.782 72.8926C192.718 75.6975 191.786 79.7379 191.887 83.8286C191.887 84.1064 191.907 84.3842 191.922 84.665C190.25 83.2972 188.364 82.2157 186.34 81.464C188.519 78.3724 190.681 75.4286 192.718 72.7005H192.709Z" fill="url(#paint1_linear_42_661)"/>
<path d="M128.275 162.76C128.275 162.76 113.619 148.07 111.399 142.286C109.179 136.502 81.6464 142.286 81.6464 142.286C81.6464 142.286 67.8817 146.291 61.6628 141.839C61.6628 141.839 71.432 149.406 72.3196 155.637C73.2071 161.867 107.846 177.893 107.846 177.893L128.275 197.031L135.381 193.026L128.275 162.76Z" fill="#FF8000"/>
<path d="M135.381 193.028L128.274 197.03L122.563 191.692L107.848 177.895C107.848 177.895 73.2125 161.858 72.322 155.651C72.1091 154.401 71.6726 153.199 71.0334 152.104C68.2321 147.009 62.0044 142.111 61.6771 141.854C67.8989 146.288 81.6459 142.291 81.6459 142.291C81.6459 142.291 109.178 136.504 111.399 142.291C113.619 148.079 128.274 162.765 128.274 162.765L135.381 193.028Z" fill="#9347B2"/>
<path opacity="0.1" d="M126.056 191.693H122.564L107.85 177.896C107.85 177.896 73.2145 161.858 72.324 155.651C72.1111 154.401 71.6745 153.199 71.0354 152.104C73.8383 152.094 76.6398 152.235 79.4275 152.527C89.1966 162.319 102.961 167.217 102.961 167.217C116.732 158.311 126.056 191.693 126.056 191.693Z" fill="black"/>
<path d="M125.612 193.028H108.737L62.9988 191.255C62.9988 191.255 56.1017 187.235 50.2131 182.87C46.3001 179.973 42.8412 176.92 42.1277 174.786C40.3584 169.445 22.1441 159.653 22.1441 159.653C22.1441 159.653 40.7948 163.2 50.564 157.427C60.3331 151.655 78.9838 153.881 78.9838 153.881C88.753 163.673 102.518 168.57 102.518 168.57C110.152 163.634 116.418 171.7 120.49 179.864C122.562 184.101 124.275 188.504 125.612 193.028Z" fill="#B247A7"/>
<path d="M141.14 162.76C141.14 162.76 155.796 148.07 158.016 142.286C160.236 136.502 187.769 142.286 187.769 142.286C187.769 142.286 201.533 146.291 207.752 141.839C207.752 141.839 197.983 149.406 197.095 155.637C196.208 161.867 161.569 177.893 161.569 177.893L141.14 197.031L134.034 193.026L141.14 162.76Z" fill="#FF8000"/>
<path d="M207.749 141.851C207.422 142.108 201.194 147.009 198.393 152.107C197.753 153.202 197.316 154.404 197.104 155.654C196.22 161.885 161.578 177.91 161.578 177.91L146.852 191.707L141.14 197.031L134.034 193.026L141.14 162.76C141.14 162.76 155.796 148.07 158.016 142.286C160.236 136.502 187.769 142.286 187.769 142.286C187.769 142.286 201.527 146.288 207.749 141.851Z" fill="#9347B2"/>
<path opacity="0.1" d="M126.661 187.573C126.042 188.149 125.001 188.628 125.186 189.455C125.268 189.733 125.436 189.977 125.664 190.153C126.82 191.182 128.692 191.983 128.536 193.525C128.448 194.412 127.675 195.042 127.298 195.84C126.51 197.507 127.752 199.632 129.5 200.205C131.249 200.779 133.207 200.105 134.649 198.955C134.959 198.707 135.289 198.426 135.684 198.426C135.986 198.468 136.278 198.558 136.551 198.695C137.73 199.103 139.06 198.198 139.564 197.043C140.069 195.887 139.977 194.569 139.874 193.313C140.543 193.883 141.643 193.573 142.212 192.896C142.782 192.219 142.947 191.306 143.097 190.437L144.15 184.345C144.993 184.1 145.329 182.959 144.943 182.17C144.557 181.381 143.657 180.949 142.784 180.866C141.912 180.783 141.039 180.982 140.178 181.147C137.925 181.582 135.633 181.78 133.34 181.738C131.438 181.7 128.996 179.347 127.946 181.443C126.988 183.316 128.401 185.956 126.661 187.573Z" fill="black"/>
<path opacity="0.1" d="M198.394 152.104C197.754 153.199 197.318 154.4 197.106 155.651C196.221 161.882 161.58 177.907 161.58 177.907L146.854 191.704H142.932C142.932 191.704 152.256 158.311 166.023 167.211C166.023 167.211 179.788 162.313 189.557 152.521C192.493 152.217 195.443 152.078 198.394 152.104Z" fill="black"/>
<path d="M247.295 159.645C247.295 159.645 229.09 169.437 227.312 174.778C226.645 176.782 223.549 179.593 219.94 182.327C213.91 186.893 206.443 191.247 206.443 191.247L160.706 193.02H143.818C145.002 188.999 146.48 185.071 148.241 181.268C152.278 172.67 158.833 163.336 166.91 168.547C166.91 168.547 180.674 163.65 190.444 153.858C190.444 153.858 209.094 151.632 218.863 157.404C228.633 163.177 247.295 159.645 247.295 159.645Z" fill="#B247A7"/>
<path d="M205.099 57.0472C205.099 57.0472 177.534 89.1458 165.783 116.456C164.574 119.267 163.327 122.072 162.006 124.818C154.958 139.519 133.754 186.295 134.494 215.557L126.5 217.262C126.5 217.262 146.926 133.581 155.365 120.674C155.365 120.674 192.667 56.5773 205.102 50.3467L205.099 57.0472Z" fill="#635151"/>
<path d="M141.035 145.847C140.552 153.934 139.962 161.63 139.44 167.769C139.337 169.034 139.231 170.231 139.145 171.358C138.594 177.523 138.193 181.442 138.193 181.442V181.466C138.089 183.393 137.491 186.322 136.524 189.966C136.205 191.172 135.839 192.458 135.444 193.809C135.368 194.054 135.297 194.302 135.223 194.551C134.885 195.69 134.522 196.872 134.135 198.097C133.976 198.597 133.817 199.102 133.652 199.617C132.767 202.389 131.776 205.345 130.703 208.425C129.744 211.206 128.727 214.088 127.674 217.023L127.5 217.498C127.474 217.569 127.447 217.646 127.421 217.72H121.868C121.892 217.643 121.913 217.569 121.93 217.498C122.78 214.484 123.561 211.531 124.289 208.664C125.018 205.797 125.711 202.957 126.327 200.291C126.58 199.201 126.824 198.136 127.058 197.095C127.135 196.758 127.209 196.425 127.279 196.093C127.315 195.946 127.347 195.798 127.377 195.656C127.536 194.95 127.686 194.255 127.831 193.587C127.89 193.339 127.943 193.088 127.996 192.845L128.129 192.222C128.462 190.664 128.768 189.186 129.049 187.806C129.279 186.674 129.488 185.613 129.683 184.614C129.957 183.195 130.202 181.915 130.405 180.807C130.995 177.647 131.29 175.826 131.29 175.826C131.303 175.786 131.314 175.744 131.322 175.702C131.682 174.39 132.015 173.042 132.322 171.665C134.123 163.661 135.176 154.67 135.751 145.844C137.267 122.672 135.512 100.623 135.512 100.623L139.443 95.2314C142.772 101.737 142.268 125.087 141.035 145.847Z" fill="#635151"/>
<path d="M195.453 110.893C195.453 110.893 187.335 124.043 179.285 140.808C178.499 142.455 177.713 144.13 176.926 145.832C173.865 152.447 171.137 159.211 168.752 166.099C168.525 166.761 168.304 167.426 168.092 168.086C167.691 169.318 167.31 170.548 166.954 171.762C166.812 172.238 166.674 172.714 166.544 173.187C166.29 174.086 166.05 174.977 165.824 175.862C165.497 177.157 165.199 178.439 164.94 179.704C164.94 179.704 163.271 184.85 161.009 193.005C160.867 193.531 160.714 194.063 160.57 194.613C160.466 194.991 160.36 195.378 160.254 195.771C159.446 198.786 158.576 202.126 157.698 205.714C157.403 206.944 157.108 208.197 156.795 209.486C156.188 212.063 155.577 214.747 154.988 217.501C154.988 217.578 154.955 217.649 154.943 217.723H149.373C149.373 217.646 149.397 217.572 149.406 217.501C149.789 214.563 150.175 211.693 150.585 208.93C150.865 206.95 151.154 205.017 151.443 203.16C151.95 199.894 152.469 196.841 152.985 194.09C153.056 193.729 153.124 193.374 153.189 193.025C153.189 193.025 153.189 192.999 153.189 192.984C153.761 189.836 154.509 186.723 155.427 183.659C155.655 182.936 155.922 182.225 156.226 181.531C156.226 181.531 156.978 179.598 158.29 176.347L158.957 174.677C159.841 172.519 160.879 169.933 162.073 167.039C162.239 166.634 162.41 166.221 162.584 165.801C165.013 159.94 167.971 152.964 171.135 145.841C171.984 143.932 172.845 141.999 173.718 140.104C181.205 123.724 189.367 107.914 194.424 104.296L195.453 110.893Z" fill="#635151"/>
<path d="M59.892 38.7992C59.892 38.7992 87.6455 74.6307 100.744 102.003C100.744 102.003 131.384 162.24 130.496 197.329L138.487 199.038C138.487 199.038 129.606 156.736 120.5 127.153C115.826 111.961 106.821 97.4574 98.4673 83.944C86.4424 64.4958 67.945 36.1628 59.8861 32.1253L59.892 38.7992Z" fill="#635151"/>
<path d="M188.52 217.868C188.433 217.841 188.344 217.821 188.254 217.809C188.171 217.79 188.086 217.777 188.001 217.767C187.898 217.767 187.797 217.741 187.706 217.735C187.615 217.729 187.514 217.735 187.411 217.735H82.9936C82.8962 217.735 82.7989 217.735 82.6987 217.735C82.5984 217.735 82.4893 217.752 82.3891 217.767C82.5306 217.679 82.6839 217.59 82.8255 217.504C85.3702 215.994 88.776 214.617 92.8777 213.414C101.043 211.019 111.968 209.314 124.288 208.67C125.735 208.59 127.204 208.531 128.687 208.484L130.707 208.43C132.025 208.404 133.361 208.386 134.702 208.386C134.93 208.386 135.151 208.386 135.378 208.386C140.635 208.386 145.728 208.578 150.57 208.933C152.693 209.088 154.762 209.276 156.777 209.494C162.808 210.104 168.79 211.128 174.681 212.556C180.222 213.946 184.748 215.624 187.927 217.51C188.132 217.624 188.329 217.744 188.52 217.868Z" fill="#635151"/>
<path opacity="0.1" d="M125.614 193.029H108.738L63.0005 191.255C63.0005 191.255 56.1035 187.236 50.2148 182.87C59.5623 174.576 74.8692 174.742 78.5404 176.79C82.5388 179.001 90.0876 178.114 90.0876 178.114C95.6341 165.538 110.77 173.146 120.501 179.84C122.57 184.085 124.281 188.497 125.614 193.029Z" fill="black"/>
<path d="M129.163 187.909C129.163 187.909 98.5222 160.312 90.0859 179.453C90.0859 179.453 82.5372 180.34 78.5416 178.117C74.5461 175.895 56.7829 175.892 47.9013 186.573C39.0198 197.255 17.7063 207.94 17.7063 207.94C17.7063 207.94 39.2498 209.796 49.6794 213.281C52.3333 214.167 67.4426 212.834 77.6541 209.734C87.8655 206.633 98.9734 211.513 98.9734 211.513L130.495 198.591L129.163 187.909Z" fill="#FF8000"/>
<path d="M130.497 198.591L98.9754 211.513C95.7532 210.205 92.3702 209.337 88.9173 208.933C85.4613 208.522 81.4982 208.564 77.659 209.734C67.4446 212.849 52.3471 214.185 49.6844 213.281C39.2547 209.796 17.7113 207.94 17.7113 207.94C17.7113 207.94 39.0277 197.258 47.9063 186.574C56.7849 175.889 74.5451 175.892 78.5436 178.114C82.5421 180.337 90.0879 179.45 90.0879 179.45C98.5242 160.31 129.164 187.907 129.164 187.907L129.804 193.052L130.497 198.591Z" fill="#9347B2"/>
<path opacity="0.1" d="M219.925 182.329C213.895 186.896 206.429 191.249 206.429 191.249L160.691 193.023H143.818C145.002 189.002 146.48 185.074 148.241 181.271C157.745 174.349 174.724 164.619 180.677 178.111C180.677 178.111 188.226 178.998 192.222 176.775C195.813 174.777 210.539 174.568 219.925 182.329Z" fill="black"/>
<path d="M141.599 187.909C141.599 187.909 172.239 160.312 180.675 179.453C180.675 179.453 188.224 180.34 192.22 178.117C196.215 175.895 213.978 175.892 222.86 186.573C231.742 197.255 253.055 207.94 253.055 207.94C253.055 207.94 231.518 209.796 221.085 213.287C218.431 214.173 203.322 212.84 193.11 209.74C182.899 206.639 171.809 211.513 171.809 211.513L140.257 198.591L141.599 187.909Z" fill="#FF8000"/>
<path d="M253.058 207.94C253.058 207.94 231.517 209.796 221.085 213.287C218.431 214.173 203.322 212.84 193.11 209.74C188.021 208.185 182.716 208.623 178.661 209.444C176.316 209.912 174.021 210.605 171.809 211.513L140.257 198.591L141.062 192.151L141.59 187.909C141.59 187.909 172.23 160.312 180.667 179.453C180.667 179.453 188.215 180.34 192.211 178.117C196.206 175.895 213.97 175.892 222.851 186.573C231.733 197.255 253.058 207.94 253.058 207.94Z" fill="#9347B2"/>
<path opacity="0.1" d="M178.67 209.444C176.322 209.912 174.024 210.604 171.809 211.513L140.257 198.591L141.062 192.151C150.884 190.909 169.568 197.255 169.568 197.255C169.568 197.255 181.946 204.177 178.67 209.444Z" fill="black"/>
<path opacity="0.1" d="M130.494 198.591L98.9724 211.513C95.7503 210.205 92.3673 209.337 88.9143 208.933C88.8487 208.759 88.7964 208.58 88.758 208.398C91.9633 190.194 119.162 191.743 129.807 193.07L130.494 198.591Z" fill="black"/>
<path d="M177.664 209.648C177.278 210.686 176.349 211.673 174.686 212.551C173.76 213.031 172.793 213.427 171.796 213.733C167.995 214.93 165.418 216.233 163.693 217.516C163.59 217.593 163.499 217.664 163.398 217.738H105.898C105.854 217.649 105.809 217.578 105.777 217.516C105.692 217.368 105.638 217.295 105.638 217.295C98.9065 217.085 95.0643 215.273 92.8881 213.426C90.4643 211.377 90.0957 209.288 90.0957 209.288C90.0957 209.226 90.1193 209.158 90.1311 209.096C92.9058 194.22 111.854 192.695 124.336 193.357C125.575 193.425 126.748 193.507 127.837 193.605L128.512 193.667L129.901 193.815L130.49 193.883C131.183 193.963 131.814 194.048 132.378 194.128C132.693 194.169 132.967 194.214 133.262 194.249C134.256 194.4 134.94 194.521 135.235 194.574L135.4 194.607C135.605 194.444 135.822 194.297 136.049 194.166C136.333 194.002 136.628 193.858 136.933 193.738C137.063 193.685 137.196 193.64 137.329 193.596C138.514 193.218 139.745 193.001 140.988 192.952C141.392 192.925 141.805 192.91 142.232 192.907C142.76 192.907 143.306 192.907 143.866 192.931C144.426 192.955 144.927 192.984 145.473 193.029C145.57 193.029 145.668 193.029 145.768 193.052C148.192 193.278 150.603 193.633 152.989 194.116C155.546 194.619 158.046 195.219 160.258 195.804C164.89 197.028 168.261 198.168 168.261 198.168C168.261 198.168 179.593 204.494 177.664 209.648Z" fill="#B247A7"/>
<path d="M137.537 91.1862C144.187 89.4934 148.696 84.644 147.61 80.3548C146.523 76.0656 140.251 73.9609 133.601 75.6537C126.951 77.3466 122.441 82.1959 123.528 86.4851C124.615 90.7743 130.887 92.8791 137.537 91.1862Z" fill="#FF8000"/>
<path d="M144.999 78.0381C144.999 78.0381 162.797 67.8677 171.407 76.0283C171.407 76.0283 163.632 91.0667 144.441 83.3879L144.999 78.0381Z" fill="#9347B2"/>
<path opacity="0.05" d="M142.195 78.0771C142.195 78.0771 152.863 60.5441 164.337 63.5116C164.337 63.5116 164.788 80.4416 144.285 83.019L142.195 78.0771Z" fill="black"/>
<path d="M143.592 82.3329L143.297 81.6354L141.498 77.3822C141.498 77.3822 146.154 69.7182 152.641 65.3851C155.962 63.1595 159.757 61.8088 163.643 62.8167C163.64 62.8167 164.094 79.7467 143.592 82.3329Z" fill="#B247A7"/>
<path opacity="0.05" d="M152.64 65.3852C152.387 70.1882 150.205 76.0108 143.331 81.6591L143.299 81.6384L141.5 77.3852C141.5 77.3852 146.153 69.7182 152.64 65.3852Z" fill="black"/>
<path d="M142.634 81.6561L141.643 80.9615L138.231 78.5822C138.231 78.5822 138.11 69.7152 141.236 62.598C142.864 58.8945 145.364 55.6728 149.239 54.4374C149.239 54.4374 158.616 68.527 142.634 81.6561Z" fill="#9347B2"/>
<path opacity="0.05" d="M141.775 80.9702H141.643L138.231 78.5909C138.231 78.5909 138.11 69.724 141.236 62.6067C143.433 66.7919 144.521 72.7742 141.775 80.9702Z" fill="black"/>
<path d="M135.717 80.7106C135.717 80.7106 124.594 63.4642 132.243 54.4051C132.243 54.4051 147.656 61.3509 141.09 80.9825L135.717 80.7106Z" fill="#FF8000"/>
<path opacity="0.05" d="M133.063 81.6411C133.063 81.6411 117.176 68.6717 121.678 57.6796C121.678 57.6796 138.486 59.5239 138.253 80.2342L133.063 81.6411Z" fill="black"/>
<path d="M132.37 81.6411C132.37 81.6411 116.485 68.6687 120.973 57.6796C120.973 57.6796 137.781 59.5239 137.548 80.2342L132.37 81.6411Z" fill="#9347B2"/>
<path opacity="0.05" d="M130.579 83.8727C130.579 83.8727 110.681 78.9722 110.041 67.114C110.041 67.114 126.008 61.5692 134.657 80.3791L130.579 83.8727Z" fill="black"/>
<path d="M130.231 84.5674C130.231 84.5674 110.333 79.6669 109.693 67.8088C109.693 67.8088 125.66 62.264 134.309 81.0738L130.231 84.5674Z" fill="#FF8000"/>
<path opacity="0.05" d="M129.199 87.9664C129.199 87.9664 109.097 91.9417 103.521 81.4639C103.521 81.4639 115.661 69.6826 131.422 83.0718L129.199 87.9664Z" fill="black"/>
<path d="M128.85 88.6525C128.85 88.6525 108.748 92.6279 103.172 82.15C103.172 82.15 115.312 70.3687 131.073 83.7579L128.85 88.6525Z" fill="#9347B2"/>
<path opacity="0.05" d="M132.135 87.2778C132.135 87.2778 117.486 101.636 107.094 95.9261C107.094 95.9261 110.819 79.4039 131.321 81.9606L132.135 87.2778Z" fill="black"/>
<path d="M132.831 87.9661C132.831 87.9661 118.181 102.325 107.79 96.6143C107.79 96.6143 111.514 80.0922 132.017 82.6488L132.831 87.9661Z" fill="#FF8000"/>
<path opacity="0.05" d="M131.61 85.6845C131.61 85.6845 134.028 106.079 123.176 110.849C123.176 110.849 112.384 97.8146 126.912 83.0865L131.61 85.6845Z" fill="black"/>
<path d="M132.652 86.0309C132.652 86.0309 135.07 106.425 124.219 111.195C124.219 111.195 113.426 98.161 127.955 83.4329L132.652 86.0309Z" fill="#9347B2"/>
<path opacity="0.05" d="M139.43 87.0973C139.43 87.0973 141.848 107.491 130.996 112.262C130.996 112.262 120.204 99.2273 134.732 84.4992L139.43 87.0973Z" fill="black"/>
<path d="M140.126 87.0973C140.126 87.0973 142.544 107.491 131.693 112.262C131.693 112.262 120.901 99.2273 135.429 84.4992L140.126 87.0973Z" fill="#FF8000"/>
<path opacity="0.05" d="M137.557 87.5088C137.557 87.5088 154.463 99.1097 150.9 110.43C150.9 110.43 134.007 109.99 132.512 89.3324L137.557 87.5088Z" fill="black"/>
<path d="M138.251 87.5088C138.251 87.5088 155.159 99.1097 151.597 110.43C151.597 110.43 134.704 109.99 133.209 89.3324L138.251 87.5088Z" fill="#9347B2"/>
<path opacity="0.05" d="M142.172 84.8102C142.172 84.8102 163.064 89.8643 165.402 103.632C165.402 103.632 149.986 110.592 138.53 89.0042L142.172 84.8102Z" fill="black"/>
<path d="M142.869 84.4611C142.869 84.4611 163.76 89.5153 166.099 103.283C166.099 103.283 150.683 110.243 139.227 88.6552L142.869 84.4611Z" fill="#FF8000"/>
<path d="M135.717 80.7106C135.717 80.7106 124.594 63.4642 132.243 54.4051C132.243 54.4051 147.656 61.3509 141.09 80.9825L135.717 80.7106Z" fill="#FF8000"/>
<path d="M135.717 80.7106C135.717 80.7106 124.594 63.4642 132.243 54.4051C132.243 54.4051 147.656 61.3509 141.09 80.9825L135.717 80.7106Z" fill="#B247A7"/>
<path d="M130.231 84.5674C130.231 84.5674 110.333 79.6669 109.693 67.8088C109.693 67.8088 125.66 62.264 134.309 81.0738L130.231 84.5674Z" fill="#FF8000"/>
<path d="M130.231 84.5674C130.231 84.5674 110.333 79.6669 109.693 67.8088C109.693 67.8088 125.66 62.264 134.309 81.0738L130.231 84.5674Z" fill="#B247A7"/>
<path d="M132.831 87.9661C132.831 87.9661 118.181 102.325 107.79 96.6143C107.79 96.6143 111.514 80.0922 132.017 82.6488L132.831 87.9661Z" fill="#FF8000"/>
<path d="M132.831 87.9661C132.831 87.9661 118.181 102.325 107.79 96.6143C107.79 96.6143 111.514 80.0922 132.017 82.6488L132.831 87.9661Z" fill="#B247A7"/>
<path d="M140.126 87.0973C140.126 87.0973 142.544 107.491 131.693 112.262C131.693 112.262 120.901 99.2273 135.429 84.4992L140.126 87.0973Z" fill="#FF8000"/>
<path d="M140.126 87.0973C140.126 87.0973 142.544 107.491 131.693 112.262C131.693 112.262 120.901 99.2273 135.429 84.4992L140.126 87.0973Z" fill="#B247A7"/>
<path d="M142.869 84.4611C142.869 84.4611 163.76 89.5153 166.099 103.283C166.099 103.283 150.683 110.243 139.227 88.6552L142.869 84.4611Z" fill="#FF8000"/>
<path d="M142.869 84.4611C142.869 84.4611 163.76 89.5153 166.099 103.283C166.099 103.283 150.683 110.243 139.227 88.6552L142.869 84.4611Z" fill="#B247A7"/>
<path opacity="0.05" d="M144.87 81.4995C144.87 81.4995 166.346 82.2857 171.374 95.3114C171.374 95.3114 157.65 105.21 142.137 86.338L144.87 81.4995Z" fill="black"/>
<path opacity="0.05" d="M145.218 79.7585C145.218 79.7585 166.694 80.5447 171.721 93.5702C171.721 93.5702 157.998 103.469 142.485 84.5969L145.218 79.7585Z" fill="black"/>
<path d="M145.218 80.8048C145.218 80.8048 166.694 81.591 171.721 94.6166C171.721 94.6166 157.998 104.515 142.485 85.6432L145.218 80.8048Z" fill="#9347B2"/>
<path d="M61.7535 39.9573C68.4035 38.2644 72.9133 33.415 71.8265 29.1258C70.7398 24.8366 64.4679 22.7319 57.818 24.4247C51.1681 26.1176 46.6582 30.967 47.745 35.2561C48.8318 39.5453 55.1036 41.6501 61.7535 39.9573Z" fill="#FF8000"/>
<path d="M69.2138 26.8171C69.2138 26.8171 87.0123 16.6466 95.6226 24.8072C95.6226 24.8072 87.8468 39.8456 68.6565 32.1668L69.2138 26.8171Z" fill="#9347B2"/>
<path opacity="0.05" d="M66.4079 26.8525C66.4079 26.8525 77.0764 9.31946 88.5499 12.287C88.5499 12.287 89.0011 29.217 68.4985 31.7943L66.4079 26.8525Z" fill="black"/>
<path d="M67.8049 31.1085L67.51 30.411L65.7113 26.1578C65.7113 26.1578 70.3703 18.5085 76.8575 14.1607C80.1777 11.9351 83.9728 10.5844 87.8592 11.5923C87.8533 11.5923 88.3074 28.5253 67.8049 31.1085Z" fill="#B247A7"/>
<path opacity="0.05" d="M76.8575 14.1605C76.6039 18.9635 74.4218 24.7861 67.5483 30.4344L67.5159 30.4137L65.7172 26.1605C65.7172 26.1605 70.3703 18.5083 76.8575 14.1605Z" fill="black"/>
<path d="M66.8321 30.4346L65.8561 29.74L62.4444 27.3607C62.4444 27.3607 62.3235 18.4937 65.4492 11.3765C67.0769 7.67304 69.5774 4.45136 73.452 3.2159C73.452 3.2159 82.829 17.3026 66.8321 30.4346Z" fill="#9347B2"/>
<path opacity="0.05" d="M65.9888 29.7396H65.8561L62.4444 27.3603C62.4444 27.3603 62.3235 18.4933 65.4492 11.3761C67.646 15.5672 68.7341 21.5524 65.9888 29.7396Z" fill="black"/>
<path d="M59.9333 29.4858C59.9333 29.4858 48.8107 12.2395 56.4597 3.1804C56.4597 3.1804 71.8728 10.1262 65.3059 29.7577L59.9333 29.4858Z" fill="#FF8000"/>
<path opacity="0.05" d="M57.2791 30.4197C57.2791 30.4197 41.3943 17.4473 45.8822 6.45816C45.8822 6.45816 62.69 8.30249 62.4571 29.0128L57.2791 30.4197Z" fill="black"/>
<path d="M56.5835 30.4197C56.5835 30.4197 40.6987 17.4473 45.1867 6.45816C45.1867 6.45816 61.9944 8.30249 61.7615 29.0128L56.5835 30.4197Z" fill="#9347B2"/>
<path opacity="0.05" d="M54.792 32.6485C54.792 32.6485 34.894 27.748 34.2541 15.8899C34.2541 15.8899 50.2215 10.3451 58.8701 29.1549L54.792 32.6485Z" fill="black"/>
<path d="M54.4482 33.3463C54.4482 33.3463 34.5502 28.4459 33.9103 16.5877C33.9103 16.5877 49.8777 11.0429 58.5263 29.8528L54.4482 33.3463Z" fill="#FF8000"/>
<path opacity="0.05" d="M53.4149 36.7301C53.4149 36.7301 33.3134 40.7054 27.7374 30.2276C27.7374 30.2276 39.8773 18.4463 55.6383 31.8355L53.4149 36.7301Z" fill="black"/>
<path d="M53.0662 37.4248C53.0662 37.4248 32.9647 41.4002 27.3886 30.9223C27.3886 30.9223 39.5286 19.1411 55.2895 32.5302L53.0662 37.4248Z" fill="#9347B2"/>
<path opacity="0.05" d="M56.3504 36.0528C56.3504 36.0528 41.7011 50.4114 31.3098 44.7011C31.3098 44.7011 35.034 28.1789 55.5365 30.7356L56.3504 36.0528Z" fill="black"/>
<path d="M57.047 36.7507C57.047 36.7507 42.3977 51.1093 32.0064 45.4049C32.0064 45.4049 35.7306 28.8827 56.2332 31.4394L57.047 36.7507Z" fill="#FF8000"/>
<path opacity="0.05" d="M55.8259 34.4689C55.8259 34.4689 58.2439 54.863 47.3925 59.6334C47.3925 59.6334 36.6002 46.599 51.1286 31.8709L55.8259 34.4689Z" fill="black"/>
<path d="M56.8654 34.8089C56.8654 34.8089 59.2834 55.203 48.4321 59.9735C48.4321 59.9735 37.6397 46.939 52.1681 32.2109L56.8654 34.8089Z" fill="#9347B2"/>
<path opacity="0.05" d="M63.6458 35.8727C63.6458 35.8727 66.0638 56.2668 55.2125 61.0372C55.2125 61.0372 44.4201 48.0027 58.9485 33.2746L63.6458 35.8727Z" fill="black"/>
<path d="M64.3425 35.8727C64.3425 35.8727 66.7604 56.2668 55.9091 61.0372C55.9091 61.0372 45.1167 48.0027 59.6451 33.2746L64.3425 35.8727Z" fill="#FF8000"/>
<path opacity="0.05" d="M61.7738 36.2838C61.7738 36.2838 78.6789 47.8878 75.1168 59.2139C75.1168 59.2139 58.2236 58.7735 56.7286 38.1164L61.7738 36.2838Z" fill="black"/>
<path d="M62.4655 36.2838C62.4655 36.2838 79.3706 47.8878 75.8085 59.2139C75.8085 59.2139 58.9152 58.7735 57.4202 38.1164L62.4655 36.2838Z" fill="#9347B2"/>
<path opacity="0.05" d="M66.3883 33.5824C66.3883 33.5824 87.28 38.6366 89.6184 52.4041C89.6184 52.4041 74.2024 59.3647 62.7466 37.7765L66.3883 33.5824Z" fill="black"/>
<path d="M67.0848 33.2391C67.0848 33.2391 87.9766 38.2933 90.3149 52.0608C90.3149 52.0608 74.899 59.0214 63.4431 37.4332L67.0848 33.2391Z" fill="#FF8000"/>
<path d="M59.9333 29.4858C59.9333 29.4858 48.8107 12.2395 56.4597 3.1804C56.4597 3.1804 71.8728 10.1262 65.3059 29.7577L59.9333 29.4858Z" fill="#FF8000"/>
<path d="M59.9333 29.4858C59.9333 29.4858 48.8107 12.2395 56.4597 3.1804C56.4597 3.1804 71.8728 10.1262 65.3059 29.7577L59.9333 29.4858Z" fill="#B247A7"/>
<path d="M54.4482 33.3463C54.4482 33.3463 34.5502 28.4459 33.9103 16.5877C33.9103 16.5877 49.8777 11.0429 58.5263 29.8528L54.4482 33.3463Z" fill="#FF8000"/>
<path d="M54.4482 33.3463C54.4482 33.3463 34.5502 28.4459 33.9103 16.5877C33.9103 16.5877 49.8777 11.0429 58.5263 29.8528L54.4482 33.3463Z" fill="#B247A7"/>
<path d="M57.047 36.7507C57.047 36.7507 42.3977 51.1093 32.0064 45.4049C32.0064 45.4049 35.7306 28.8827 56.2332 31.4394L57.047 36.7507Z" fill="#FF8000"/>
<path d="M57.047 36.7507C57.047 36.7507 42.3977 51.1093 32.0064 45.4049C32.0064 45.4049 35.7306 28.8827 56.2332 31.4394L57.047 36.7507Z" fill="#B247A7"/>
<path d="M64.3425 35.8727C64.3425 35.8727 66.7604 56.2668 55.9091 61.0372C55.9091 61.0372 45.1167 48.0027 59.6451 33.2746L64.3425 35.8727Z" fill="#FF8000"/>
<path d="M64.3425 35.8727C64.3425 35.8727 66.7604 56.2668 55.9091 61.0372C55.9091 61.0372 45.1167 48.0027 59.6451 33.2746L64.3425 35.8727Z" fill="#B247A7"/>
<path d="M67.0848 33.2391C67.0848 33.2391 87.9766 38.2933 90.3149 52.0608C90.3149 52.0608 74.899 59.0214 63.4431 37.4332L67.0848 33.2391Z" fill="#FF8000"/>
<path d="M67.0848 33.2391C67.0848 33.2391 87.9766 38.2933 90.3149 52.0608C90.3149 52.0608 74.899 59.0214 63.4431 37.4332L67.0848 33.2391Z" fill="#B247A7"/>
<path opacity="0.05" d="M69.0857 30.2777C69.0857 30.2777 90.5613 31.0639 95.5888 44.0895C95.5888 44.0895 81.8654 53.9881 66.3522 35.1161L69.0857 30.2777Z" fill="black"/>
<path opacity="0.05" d="M69.4344 28.5342C69.4344 28.5342 90.91 29.3204 95.9376 42.346C95.9376 42.346 82.2142 52.2445 66.7009 33.3726L69.4344 28.5342Z" fill="black"/>
<path d="M69.4344 29.5798C69.4344 29.5798 90.91 30.366 95.9376 43.3916C95.9376 43.3916 82.2142 53.2902 66.7009 34.4183L69.4344 29.5798Z" fill="#9347B2"/>
<path d="M211.313 57.4514C216.545 53.0024 218.471 46.6602 215.615 43.2856C212.759 39.911 206.202 40.782 200.97 45.231C195.738 49.68 193.812 56.0223 196.669 59.3968C199.525 62.7714 206.081 61.9004 211.313 57.4514Z" fill="#FF8000"/>
<path d="M212.264 42.3845C212.264 42.3845 223.799 25.4101 235.107 28.954C235.107 28.954 234.709 45.887 214.107 47.4357L212.264 42.3845Z" fill="#B247A7"/>
<path opacity="0.05" d="M209.763 43.6521C209.763 43.6521 211.665 23.2019 223.274 20.8196C223.274 20.8196 231.097 35.8314 213.815 47.1782L209.763 43.6521Z" fill="black"/>
<path d="M212.887 46.8621L212.315 46.3656L208.836 43.336C208.836 43.336 209.67 34.3981 213.586 27.6533C215.594 24.1922 218.413 21.3074 222.347 20.5035C222.347 20.5005 230.17 35.5124 212.887 46.8621Z" fill="#9347B2"/>
<path opacity="0.05" d="M213.586 27.6532C215.462 32.0867 216.051 38.2699 212.354 46.3714H212.315L208.836 43.3359C208.836 43.3359 209.67 34.395 213.586 27.6532Z" fill="black"/>
<path d="M211.729 46.676L210.55 46.4898L206.442 45.8543C206.442 45.8543 202.444 37.9302 202.137 30.1716C201.975 26.1282 202.821 22.1292 205.752 19.3184C205.737 19.3154 220.334 27.8455 211.729 46.676Z" fill="#B247A7"/>
<path opacity="0.05" d="M210.655 46.4363L210.534 46.4895L206.426 45.854C206.426 45.854 202.428 37.9299 202.121 30.1713C205.931 32.9703 209.531 37.8649 210.655 46.4363Z" fill="black"/>
<path d="M205.103 48.8689C205.103 48.8689 187.552 38.2699 190.45 26.7546C190.45 26.7546 207.341 26.2078 210.03 46.7438L205.103 48.8689Z" fill="#FF8000"/>
<path opacity="0.05" d="M203.124 50.8758C203.124 50.8758 183.17 46.2176 182.385 34.3654C182.385 34.3654 198.285 28.6285 207.155 47.3319L203.124 50.8758Z" fill="black"/>
<path d="M202.499 51.18C202.499 51.18 182.545 46.5219 181.761 34.6696C181.761 34.6696 197.66 28.9327 206.53 47.6361L202.499 51.18Z" fill="#B247A7"/>
<path opacity="0.05" d="M201.868 53.9762C201.868 53.9762 181.846 58.3328 176.072 47.9614C176.072 47.9614 187.988 35.9525 204 49.0402L201.868 53.9762Z" fill="black"/>
<path d="M201.862 54.7508C201.862 54.7508 181.84 59.1074 176.066 48.736C176.066 48.736 187.982 36.7271 203.994 49.8148L201.862 54.7508Z" fill="#FF8000"/>
<path opacity="0.05" d="M202.416 58.2475C202.416 58.2475 186.101 70.6613 176.5 63.7096C176.5 63.7096 182.244 47.7815 202.272 52.8712L202.416 58.2475Z" fill="black"/>
<path d="M202.41 59.0276C202.41 59.0276 186.095 71.4414 176.494 64.4897C176.494 64.4897 182.238 48.5616 202.266 53.6513L202.41 59.0276Z" fill="#B247A7"/>
<path opacity="0.05" d="M204.758 56.3412C204.758 56.3412 197.888 75.689 186.051 75.1333C186.051 75.1333 182.159 58.6525 201.7 51.9225L204.758 56.3412Z" fill="black"/>
<path d="M205.688 56.666C205.688 56.666 198.818 76.0138 186.982 75.4581C186.982 75.4581 183.089 58.9773 202.631 52.2473L205.688 56.666Z" fill="#FF8000"/>
<path opacity="0.05" d="M203.588 55.1589C203.588 55.1589 214.696 72.4171 207.038 81.4643C207.038 81.4643 191.631 74.5067 198.231 54.8781L203.588 55.1589Z" fill="black"/>
<path d="M204.678 54.9988C204.678 54.9988 215.786 72.2569 208.128 81.3042C208.128 81.3042 192.721 74.3465 199.321 54.718L204.678 54.9988Z" fill="#B247A7"/>
<path opacity="0.05" d="M211.235 52.9715C211.235 52.9715 222.343 70.2296 214.685 79.2769C214.685 79.2769 199.278 72.3193 205.878 52.6907L211.235 52.9715Z" fill="black"/>
<path d="M211.857 52.6669C211.857 52.6669 222.965 69.9251 215.307 78.9724C215.307 78.9724 199.9 72.0147 206.499 52.3861L211.857 52.6669Z" fill="#FF8000"/>
<path opacity="0.05" d="M209.731 54.1659C209.731 54.1659 230.003 57.1482 231.767 68.8911C231.767 68.8911 216.398 75.9315 206.004 58.032L209.731 54.1659Z" fill="black"/>
<path d="M210.353 53.8608C210.353 53.8608 230.625 56.8431 232.389 68.5859C232.389 68.5859 217.02 75.6263 206.626 57.7268L210.353 53.8608Z" fill="#B247A7"/>
<path opacity="0.05" d="M212.695 49.7117C212.695 49.7117 233.679 45.0566 241.811 56.3945C241.811 56.3945 231.013 69.4349 211.262 55.0822L212.695 49.7117Z" fill="black"/>
<path d="M213.166 49.0937C213.166 49.0937 234.149 44.4385 242.282 55.7765C242.282 55.7765 231.483 68.8168 211.733 54.4641L213.166 49.0937Z" fill="#FF8000"/>
<path d="M205.103 48.8689C205.103 48.8689 187.552 38.2699 190.45 26.7546C190.45 26.7546 207.341 26.2078 210.03 46.7438L205.103 48.8689Z" fill="#FF8000"/>
<path d="M205.103 48.8689C205.103 48.8689 187.552 38.2699 190.45 26.7546C190.45 26.7546 207.341 26.2078 210.03 46.7438L205.103 48.8689Z" fill="#9347B2"/>
<path d="M201.862 54.7508C201.862 54.7508 181.84 59.1074 176.066 48.736C176.066 48.736 187.982 36.7271 203.994 49.8148L201.862 54.7508Z" fill="#FF8000"/>
<path d="M201.862 54.7508C201.862 54.7508 181.84 59.1074 176.066 48.736C176.066 48.736 187.982 36.7271 203.994 49.8148L201.862 54.7508Z" fill="#9347B2"/>
<path d="M205.688 56.666C205.688 56.666 198.818 76.0138 186.982 75.4581C186.982 75.4581 183.089 58.9773 202.631 52.2473L205.688 56.666Z" fill="#FF8000"/>
<path d="M205.688 56.666C205.688 56.666 198.818 76.0138 186.982 75.4581C186.982 75.4581 183.089 58.9773 202.631 52.2473L205.688 56.666Z" fill="#9347B2"/>
<path d="M211.857 52.6669C211.857 52.6669 222.965 69.9251 215.307 78.9724C215.307 78.9724 199.9 72.0147 206.499 52.3861L211.857 52.6669Z" fill="#FF8000"/>
<path d="M211.857 52.6669C211.857 52.6669 222.965 69.9251 215.307 78.9724C215.307 78.9724 199.9 72.0147 206.499 52.3861L211.857 52.6669Z" fill="#9347B2"/>
<path d="M213.166 49.0937C213.166 49.0937 234.149 44.4385 242.282 55.7765C242.282 55.7765 231.483 68.8168 211.733 54.4641L213.166 49.0937Z" fill="#FF8000"/>
<path d="M213.166 49.0937C213.166 49.0937 234.149 44.4385 242.282 55.7765C242.282 55.7765 231.483 68.8168 211.733 54.4641L213.166 49.0937Z" fill="#9347B2"/>
<path opacity="0.05" d="M213.678 45.5497C213.678 45.5497 233.317 36.8009 243.54 46.2915C243.54 46.2915 235.546 61.2235 213.342 51.1004L213.678 45.5497Z" fill="black"/>
<path opacity="0.05" d="M213.215 43.8324C213.215 43.8324 232.854 35.0836 243.077 44.5742C243.077 44.5742 235.083 59.5063 212.879 49.3831L213.215 43.8324Z" fill="black"/>
<path d="M213.678 44.7724C213.678 44.7724 233.317 36.0236 243.54 45.5143C243.54 45.5143 235.546 60.4463 213.342 50.3231L213.678 44.7724Z" fill="#B247A7"/>
<path d="M220.888 47.4296C221.408 49.8803 221.192 52.4307 220.266 54.7582C219.341 57.0858 217.748 59.0861 215.688 60.5062C213.629 61.9264 211.195 62.7026 208.696 62.7368C206.196 62.771 203.743 62.0616 201.645 60.6984C199.548 59.3351 197.901 57.3792 196.913 55.0778C195.924 52.7765 195.638 50.233 196.092 47.7689C196.545 45.3049 197.717 43.0309 199.46 41.2344C201.202 39.4378 203.437 38.1995 205.882 37.6759C207.506 37.3284 209.182 37.305 210.816 37.6071C212.449 37.9093 214.007 38.531 215.4 39.4367C216.794 40.3425 217.996 41.5146 218.937 42.886C219.879 44.2574 220.542 45.8014 220.888 47.4296Z" fill="#B247A7"/>
<path d="M76.0055 30.0329C76.5259 32.4837 76.3096 35.034 75.3841 37.3616C74.4587 39.6891 72.8655 41.6894 70.806 43.1095C68.7466 44.5297 66.3133 45.3059 63.8138 45.3401C61.3143 45.3743 58.8608 44.665 56.7634 43.3017C54.666 41.9385 53.019 39.9825 52.0305 37.6812C51.0419 35.3798 50.7563 32.8363 51.2097 30.3723C51.663 27.9082 52.8351 25.6342 54.5776 23.8377C56.3201 22.0412 58.5549 20.8028 60.9994 20.2792C62.6237 19.9317 64.3004 19.9083 65.9337 20.2105C67.5669 20.5126 69.1248 21.1343 70.5183 22.0401C71.9119 22.9458 73.1137 24.1179 74.0552 25.4893C74.9967 26.8608 75.6594 28.4047 76.0055 30.0329Z" fill="#B247A7"/>
<path d="M199.038 113.28C204.34 108.915 206.366 102.604 203.564 99.1846C200.762 95.765 194.192 96.5315 188.89 100.897C183.588 105.262 181.562 111.573 184.365 114.992C187.167 118.412 193.737 117.645 199.038 113.28Z" fill="#FF8000"/>
<path d="M200.217 98.1957C200.217 98.1957 212.012 81.4046 223.271 85.1258C223.271 85.1258 222.607 102.05 201.981 103.274L200.217 98.1957Z" fill="#B247A7"/>
<path opacity="0.05" d="M197.694 99.4253C197.694 99.4253 199.917 79.0076 211.553 76.8086C211.553 76.8086 219.14 91.9416 201.68 103.016L197.694 99.4253Z" fill="black"/>
<path d="M200.764 102.682L200.201 102.177L196.768 99.0913C196.768 99.0913 197.741 90.1682 201.764 83.4854C203.828 80.0568 206.688 77.2164 210.633 76.4746C210.636 76.4746 218.223 91.6076 200.764 102.682Z" fill="#9347B2"/>
<path opacity="0.05" d="M201.766 83.4858C203.574 87.94 204.066 94.141 200.239 102.183H200.201L196.768 99.0977C196.768 99.0977 197.756 90.1686 201.766 83.4858Z" fill="black"/>
<path d="M199.61 102.479L198.43 102.272L194.323 101.562C194.323 101.562 190.448 93.582 190.265 85.8145C190.168 81.7682 191.073 77.7839 194.049 75.0174C194.049 75.0263 208.509 83.7869 199.61 102.479Z" fill="#B247A7"/>
<path opacity="0.05" d="M198.542 102.224L198.418 102.275L194.322 101.562C194.322 101.562 190.448 93.582 190.265 85.8146C194.03 88.6816 197.554 93.6352 198.542 102.224Z" fill="black"/>
<path d="M192.95 104.568C192.95 104.568 175.567 93.6944 178.645 82.2264C178.645 82.2264 195.542 81.9486 197.909 102.52L192.95 104.568Z" fill="#FF8000"/>
<path opacity="0.05" d="M190.941 106.543C190.941 106.543 171.061 101.568 170.465 89.6956C170.465 89.6956 186.453 84.2099 195.031 103.052L190.941 106.543Z" fill="black"/>
<path d="M190.311 106.839C190.311 106.839 170.43 101.864 169.835 89.9913C169.835 89.9913 185.823 84.5056 194.401 103.348L190.311 106.839Z" fill="#B247A7"/>
<path opacity="0.05" d="M189.635 109.62C189.635 109.62 169.546 113.66 163.937 103.197C163.937 103.197 176.027 91.3744 191.844 104.719L189.635 109.62Z" fill="black"/>
<path d="M189.614 110.397C189.614 110.397 169.524 114.437 163.916 103.974C163.916 103.974 176.006 92.1516 191.823 105.496L189.614 110.397Z" fill="#FF8000"/>
<path opacity="0.05" d="M190.121 113.903C190.121 113.903 173.608 126.065 164.122 118.954C164.122 118.954 170.114 103.117 190.071 108.523L190.121 113.903Z" fill="black"/>
<path d="M190.09 114.683C190.09 114.683 173.577 126.845 164.091 119.734C164.091 119.734 170.083 103.898 190.04 109.304L190.09 114.683Z" fill="#B247A7"/>
<path opacity="0.05" d="M192.491 112.037C192.491 112.037 185.317 131.276 173.492 130.528C173.492 130.528 169.859 113.976 189.504 107.565L192.491 112.037Z" fill="black"/>
<path d="M193.412 112.372C193.412 112.372 186.238 131.61 174.413 130.865C174.413 130.865 170.78 114.314 190.425 107.903L193.412 112.372Z" fill="#FF8000"/>
<path opacity="0.05" d="M191.338 110.82C191.338 110.82 202.175 128.258 194.375 137.19C194.375 137.19 179.08 129.99 185.986 110.468L191.338 110.82Z" fill="black"/>
<path d="M192.431 110.69C192.431 110.69 203.268 128.128 195.468 137.06C195.468 137.06 180.173 129.86 187.079 110.338L192.431 110.69Z" fill="#B247A7"/>
<path opacity="0.05" d="M199.019 108.766C199.019 108.766 209.855 126.204 202.056 135.136C202.056 135.136 186.761 127.936 193.667 108.414L199.019 108.766Z" fill="black"/>
<path d="M199.647 108.47C199.647 108.47 210.484 125.908 202.685 134.84C202.685 134.84 187.39 127.64 194.295 108.118L199.647 108.47Z" fill="#FF8000"/>
<path opacity="0.05" d="M197.494 109.936C197.494 109.936 217.716 113.237 219.294 125.01C219.294 125.01 203.816 131.808 193.705 113.746L197.494 109.936Z" fill="black"/>
<path d="M198.125 109.64C198.125 109.64 218.347 112.942 219.925 124.714C219.925 124.714 204.447 131.512 194.336 113.45L198.125 109.64Z" fill="#B247A7"/>
<path opacity="0.05" d="M200.529 105.529C200.529 105.529 221.583 101.205 229.538 112.67C229.538 112.67 218.537 125.539 199.013 110.876L200.529 105.529Z" fill="black"/>
<path d="M200.999 104.917C200.999 104.917 222.053 100.593 230.009 112.058C230.009 112.058 219.007 124.927 199.483 110.264L200.999 104.917Z" fill="#FF8000"/>
<path d="M192.95 104.568C192.95 104.568 175.567 93.6944 178.645 82.2264C178.645 82.2264 195.542 81.9486 197.909 102.52L192.95 104.568Z" fill="#FF8000"/>
<path d="M192.95 104.568C192.95 104.568 175.567 93.6944 178.645 82.2264C178.645 82.2264 195.542 81.9486 197.909 102.52L192.95 104.568Z" fill="#9347B2"/>
<path d="M189.614 110.397C189.614 110.397 169.524 114.437 163.916 103.974C163.916 103.974 176.006 92.1516 191.823 105.496L189.614 110.397Z" fill="#FF8000"/>
<path d="M189.614 110.397C189.614 110.397 169.524 114.437 163.916 103.974C163.916 103.974 176.006 92.1516 191.823 105.496L189.614 110.397Z" fill="#9347B2"/>
<path d="M193.412 112.372C193.412 112.372 186.238 131.61 174.413 130.865C174.413 130.865 170.78 114.314 190.425 107.903L193.412 112.372Z" fill="#FF8000"/>
<path d="M193.412 112.372C193.412 112.372 186.238 131.61 174.413 130.865C174.413 130.865 170.78 114.314 190.425 107.903L193.412 112.372Z" fill="#9347B2"/>
<path d="M199.647 108.47C199.647 108.47 210.484 125.908 202.685 134.84C202.685 134.84 187.39 127.64 194.295 108.118L199.647 108.47Z" fill="#FF8000"/>
<path d="M199.647 108.47C199.647 108.47 210.484 125.908 202.685 134.84C202.685 134.84 187.39 127.64 194.295 108.118L199.647 108.47Z" fill="#9347B2"/>
<path d="M200.999 104.917C200.999 104.917 222.053 100.593 230.009 112.058C230.009 112.058 219.007 124.927 199.483 110.264L200.999 104.917Z" fill="#FF8000"/>
<path d="M200.999 104.917C200.999 104.917 222.053 100.593 230.009 112.058C230.009 112.058 219.007 124.927 199.483 110.264L200.999 104.917Z" fill="#9347B2"/>
<path opacity="0.05" d="M201.569 101.386C201.569 101.386 221.346 92.9471 231.413 102.597C231.413 102.597 223.186 117.402 201.144 106.927L201.569 101.386Z" fill="black"/>
<path opacity="0.05" d="M201.146 99.6589C201.146 99.6589 220.92 91.2176 230.99 100.871C230.99 100.871 222.763 115.676 200.721 105.201L201.146 99.6589Z" fill="black"/>
<path d="M201.591 100.605C201.591 100.605 221.366 92.1693 231.438 101.82C231.438 101.82 223.211 116.624 201.17 106.15L201.591 100.605Z" fill="#B247A7"/>
<path opacity="0.3" d="M267.851 36.9254C275.951 36.9254 282.517 30.3433 282.517 22.2239C282.517 14.1045 275.951 7.52246 267.851 7.52246C259.75 7.52246 253.184 14.1045 253.184 22.2239C253.184 30.3433 259.75 36.9254 267.851 36.9254Z" fill="#A04DAF"/>
<path d="M28.5687 140.92L29.9458 144.851L28.8872 151.451C28.8872 151.451 27.289 156.715 27.4482 159.269C27.6074 161.823 27.4482 165.331 27.4482 165.331C27.4482 165.331 23.6148 172.351 26.8083 175.224C27.5514 175.892 28.1736 175.756 28.6896 175.159C29.2099 175.448 29.7454 175.708 30.2937 175.939L27.6133 186.39L25.0538 191.495C25.0538 191.495 19.6164 196.12 17.5375 205.853C17.5375 205.853 15.4734 212.338 14.1435 214.271C14.083 214.362 14.0171 214.449 13.9459 214.531C13.7392 214.201 13.5502 213.859 13.3798 213.508L10.9795 219.89C10.9795 219.89 15.7771 222.603 19.1357 223.732C22.4943 224.861 26.3336 223.572 27.4511 222.136C28.5687 220.7 25.213 219.103 22.8128 218.149C21.648 217.685 21.0141 216.582 20.6661 215.569C20.6337 215.255 20.6101 214.906 20.5983 214.525C20.5482 212.713 20.8253 210.269 22.3321 208.416C25.0509 205.064 29.2086 196.77 29.2086 196.77C29.2086 196.77 33.3692 192.302 34.3276 190.528L40.0864 180.893C43.2799 184.531 46.4852 193.091 46.4852 193.091L47.7649 200.908C47.7649 200.908 51.9227 212.075 53.2024 213.192C53.2378 213.225 53.2732 213.257 53.3086 213.296L53.341 213.331L53.4177 213.42L53.4501 213.458L53.5504 213.591L53.5739 213.627L53.6506 213.742L53.686 213.801L53.7538 213.916L53.7863 213.969L53.8777 214.138L53.9101 214.2L53.972 214.327L54.0074 214.401L54.0723 214.54L54.0988 214.599L54.1814 214.794L54.2138 214.871L54.2698 215.013L54.3023 215.093L54.373 215.276L54.3907 215.323L54.4645 215.527L54.491 215.604L54.547 215.764L54.5706 215.832L54.6443 216.056V216.086L54.7063 216.284L54.7269 216.352L54.7829 216.532V216.579L54.8478 216.804V216.848L54.8979 217.026L54.9156 217.091L54.9628 217.259V217.306L55.0129 217.499L55.0365 217.59L55.0601 217.682L55.0896 217.794V217.824C55.1279 217.971 55.1604 218.119 55.1898 218.237L55.2282 218.397L55.2459 218.471V218.492C55.0119 218.336 54.7892 218.164 54.5795 217.977C54.6726 219.039 54.6726 220.107 54.5795 221.169C54.4202 222.766 56.0184 225.012 56.0184 225.012C56.0184 225.012 70.4112 221.501 71.2103 219.101C72.0094 216.701 68.6508 217.032 67.6925 217.345C66.7341 217.658 61.9365 216.706 61.2967 215.589C61.1757 215.383 61.0312 215.192 60.8661 215.019C60.7284 214.868 60.5443 214.769 60.3433 214.735C60.1424 214.702 59.9361 214.737 59.7574 214.836L59.722 214.794L59.6808 214.744L59.6513 214.708L59.6012 214.64C59.5658 214.593 59.5304 214.54 59.495 214.487L59.4567 214.428C59.3918 214.327 59.3269 214.218 59.262 214.1V214.076C58.2418 212.208 57.1449 208.398 56.9031 207.494V207.473L56.8824 207.399V207.372V207.352V207.313V207.296L53.2054 195.331C54.3259 191.025 53.2054 188.95 53.2054 188.95L51.1265 179.217L49.947 174.81C49.9824 174.771 50.0001 174.751 50.0001 174.751C49.0447 172.07 48.2928 166.383 47.8269 161.988C47.7974 161.703 47.7679 161.424 47.7384 161.152L51.2769 162.786C51.2769 162.786 56.0745 170.125 59.1146 166.629C62.1547 163.132 53.0373 160.088 53.0373 160.088L47.2931 156.242V156.074L46.6533 151.289C46.6533 151.289 44.884 145.546 45.6949 141.715C46.3761 138.464 44.1557 137.282 43.4834 136.986C43.378 136.945 43.2695 136.913 43.159 136.889C42.2744 136.682 41.3043 135.786 40.4727 134.82C39.7554 133.996 38.9149 133.289 37.9811 132.724C38.5214 132.365 38.8978 131.806 39.0279 131.17C39.1605 130.434 38.9099 129.692 38.6828 128.979C39.0086 128.18 39.3869 127.403 39.8152 126.653H39.8417L40.0363 126.331C41.7233 126.135 43.2799 125.325 44.4109 124.055C45.5419 122.785 46.1688 121.144 46.1726 119.441C46.1689 118.277 45.8706 117.133 45.3057 116.116C46.0222 115.868 46.7093 115.552 46.4498 114.816C46.2758 114.316 45.807 113.991 45.4443 113.61C44.4801 112.593 44.1881 111.068 43.1797 110.099C42.8885 109.821 42.5512 109.597 42.183 109.437C41.1598 108.845 39.8476 108.78 38.6652 108.999C37.1908 109.268 35.8344 109.915 34.4042 110.329C33.1451 110.696 31.83 110.882 30.6269 111.396C28.5628 112.283 26.9882 114.056 26.0387 116.075C25.2013 117.848 24.8091 119.838 23.892 121.581C22.975 123.325 21.2912 124.901 19.3156 124.833C18.8055 124.815 18.2747 124.691 17.797 124.871C17.4212 125.034 17.1101 125.318 16.9124 125.678C15.8272 127.451 16.5261 129.831 15.6621 131.719C15.0222 133.123 13.6393 134.01 12.507 135.062C11.3747 136.114 10.3986 137.684 10.9353 139.129C11.0869 139.494 11.3098 139.824 11.5909 140.101C11.872 140.377 12.2055 140.595 12.5718 140.74C12.9421 140.942 13.3407 141.087 13.7543 141.169C14.8276 141.387 15.9393 141.254 17.0303 141.169C19.9791 140.959 23.2227 141.071 25.5816 139.265C26.5488 138.52 27.2948 137.492 28.0674 136.525C28.0757 138.004 28.2438 139.478 28.5687 140.92ZM32.8267 150.952C33.0655 151.351 33.3103 151.744 33.5639 152.134C35.9228 155.752 32.7264 160.705 32.7264 160.705C32 161.303 31.3755 162.014 30.8776 162.813C30.9188 161.291 31.0958 159.562 31.6088 158.311C32.405 156.381 32.7146 152.837 32.8296 150.952H32.8267Z" fill="url(#paint2_linear_42_661)"/>
<path d="M30.4251 144.021L29.1748 151.809C29.1748 151.809 27.612 156.952 27.7683 159.443C27.9246 161.935 27.7683 165.355 27.7683 165.355C27.7683 165.355 24.0205 172.212 27.1432 175.017C30.2659 177.821 31.2036 166.135 31.2036 166.135C31.2036 166.135 30.7347 161.149 31.8287 158.5C32.9227 155.852 33.079 150.086 33.079 150.086L30.4251 144.021Z" fill="#FFCDD3"/>
<path d="M30.4251 144.021L29.1748 151.809C29.1748 151.809 27.612 156.952 27.7683 159.443C27.9246 161.935 27.7683 165.355 27.7683 165.355C27.7683 165.355 24.0205 172.212 27.1432 175.017C30.2659 177.821 31.2036 166.135 31.2036 166.135C31.2036 166.135 30.7347 161.149 31.8287 158.5C32.9227 155.852 33.079 150.086 33.079 150.086L30.4251 144.021Z" fill="#F89D8F"/>
<path d="M48.727 170.811L50.8885 178.924L52.9201 188.43C52.9201 188.43 54.0141 190.454 52.9201 194.663L56.5117 206.35C56.5117 206.35 58.5434 213.831 59.7907 213.984C61.038 214.138 58.5404 219.896 58.5404 219.896L55.1051 217.871C55.1051 217.871 54.1527 213.207 52.9172 212.104C51.6817 211.002 47.6095 200.104 47.6095 200.104L46.3592 192.47C46.3592 192.47 42.4551 182.031 39.0169 179.536C35.5786 177.041 34.4876 172.992 34.4876 172.992L48.727 170.811Z" fill="#FFCDD3"/>
<path d="M34.4872 173.001C34.4872 173.001 35.5812 177.053 39.0164 179.545C42.4517 182.037 46.3588 192.479 46.3588 192.479L47.609 200.113C47.609 200.113 51.6694 211.02 52.9167 212.113C53.8338 212.914 54.5828 215.66 54.916 217.043C55.0369 217.549 55.1047 217.88 55.1047 217.88L58.54 219.905C58.54 219.905 61.0405 214.138 59.7902 213.993C59.5956 213.97 59.3833 213.769 59.1622 213.446C57.9591 211.697 56.5083 206.353 56.5083 206.353L52.9197 194.663C54.0137 190.457 52.9197 188.43 52.9197 188.43L50.888 178.924L48.7266 170.811L34.4872 173.001Z" fill="#F89D8F"/>
<path d="M14.494 213.517L15.7442 216.473L21.3674 215.849C21.1917 215.045 21.093 214.225 21.0726 213.402C21.0224 211.629 21.2937 209.246 22.7652 207.434C25.419 204.163 29.4824 196.058 29.4824 196.058C29.4824 196.058 33.5428 191.696 34.4952 189.981L42.3152 176.897L42.0705 175.714L44.1788 173.766H31.057L27.9343 185.92L25.4338 190.906C25.4338 190.906 20.126 195.426 18.0914 204.931C18.0914 204.931 16.0656 211.265 14.7741 213.154C14.6932 213.284 14.5993 213.406 14.494 213.517Z" fill="#F89D8F"/>
<path opacity="0.1" d="M54.9187 217.043C55.0396 217.549 55.1074 217.88 55.1074 217.88L58.5427 219.904C58.5427 219.904 61.0432 214.138 59.7929 213.993C59.5983 213.97 59.386 213.769 59.1648 213.446C59.0037 213.544 58.878 213.691 58.8059 213.865C58.7337 214.04 58.719 214.232 58.7638 214.416C58.8132 214.649 58.8966 214.873 59.0115 215.081C59.4803 215.861 57.4487 217.105 57.4487 217.105C56.7646 217.98 55.6559 217.516 54.9187 217.043Z" fill="black"/>
<path d="M58.9181 214.723C58.874 214.529 58.8949 214.325 58.9776 214.144C59.0603 213.962 59.2002 213.813 59.3758 213.719C59.5513 213.625 59.7529 213.591 59.9494 213.623C60.1458 213.655 60.3264 213.751 60.4633 213.896C60.624 214.065 60.7645 214.253 60.882 214.454C61.5071 215.545 66.1897 216.479 67.1304 216.169C68.071 215.858 71.347 215.545 70.5656 217.883C69.7842 220.221 55.7276 223.649 55.7276 223.649C55.7276 223.649 54.1648 221.468 54.3211 219.91C54.4119 218.874 54.4119 217.832 54.3211 216.795C54.3211 216.795 56.512 218.817 57.603 217.425C57.603 217.425 59.6347 216.178 59.1658 215.4C59.0499 215.188 58.9664 214.96 58.9181 214.723Z" fill="#B247A7"/>
<path opacity="0.1" d="M14.494 213.517L15.7442 216.473L21.3674 215.849C21.1917 215.045 21.093 214.225 21.0726 213.402C21.017 213.29 20.9353 213.194 20.8344 213.12C20.7335 213.047 20.6164 213 20.4931 212.982C20.3699 212.965 20.2442 212.977 20.1269 213.019C20.0095 213.06 19.904 213.13 19.8194 213.221C19.5245 213.532 19.2296 213.863 19.0173 214.132C18.3922 214.912 16.3635 214.442 16.3635 214.442C15.8356 214.616 15.2134 213.851 14.7652 213.159C14.6868 213.287 14.5959 213.407 14.494 213.517Z" fill="black"/>
<path d="M19.6533 213.541C19.7467 213.44 19.8652 213.366 19.9967 213.327C20.1281 213.288 20.2677 213.284 20.4009 213.317C20.5341 213.35 20.6562 213.418 20.7544 213.514C20.8526 213.61 20.9234 213.731 20.9595 213.863C21.2544 214.972 21.8678 216.402 23.2242 216.946C25.5684 217.88 28.8474 219.441 27.7534 220.842C26.6594 222.243 22.9116 223.502 19.6297 222.399C16.3477 221.297 11.6681 218.66 11.6681 218.66L14.0123 212.427C14.0123 212.427 15.2626 215.087 16.2003 214.765C16.2003 214.765 18.232 215.232 18.8541 214.454C19.0841 214.174 19.3761 213.854 19.6533 213.541Z" fill="#B247A7"/>
<path d="M28.5487 174.718C34.797 178.457 42.2956 176.899 42.2956 176.899L42.1394 175.809L42.4637 175.841C48.4349 176.367 49.7913 174.564 49.7913 174.564C48.8566 171.946 48.1253 166.392 47.6682 162.097C47.6034 161.48 47.5444 160.889 47.4884 160.324C47.3645 159.074 47.2731 158.019 47.2141 157.306C47.164 156.68 47.1375 156.319 47.1375 156.319L46.5123 151.643C46.5123 151.643 44.7932 146.027 45.5746 142.294C46.241 139.108 44.0737 137.958 43.4162 137.687C43.3127 137.647 43.2062 137.615 43.0977 137.592C42.2396 137.388 41.2872 136.516 40.4763 135.579C39.2929 134.227 37.7847 133.201 36.0945 132.597C35.3101 132.301 34.6407 132.006 34.6407 132.006C33.5468 130.759 30.5803 131.539 30.5803 131.539C26.9888 133.877 28.8612 141.511 28.8612 141.511L30.3533 145.767C31.2119 148.127 32.3483 150.375 33.7384 152.465C36.0355 156.012 32.9187 160.832 32.9187 160.832C28.0798 164.743 28.5487 174.718 28.5487 174.718Z" fill="#9347B2"/>
<path opacity="0.05" d="M41.907 167.474L42.4673 175.841C48.4385 176.367 49.7949 174.564 49.7949 174.564C48.8602 171.946 48.1289 166.392 47.6718 162.097C47.6069 161.48 47.548 160.888 47.4919 160.324L41.907 167.474Z" fill="black"/>
<path opacity="0.1" d="M31.9866 145.578C31.9866 145.578 34.7997 150.878 35.7344 153.213C36.6692 155.548 36.6721 154.77 37.141 155.551C37.6098 156.331 42.6079 159.756 42.6079 159.756L47.665 162.094C47.4498 160.082 47.2964 158.344 47.2109 157.318L42.4457 154.15C42.4457 154.15 39.1668 152.125 39.0105 149.474C38.8542 146.822 36.8225 141.993 36.8225 141.993C36.8225 141.993 32.7621 137.63 31.043 139.655C29.3239 141.68 31.9866 145.578 31.9866 145.578Z" fill="black"/>
<path d="M36.828 141.216C36.828 141.216 38.8597 146.045 39.016 148.696C39.1723 151.348 42.4513 153.372 42.4513 153.372L52.7718 160.229C52.7718 160.229 61.674 163.185 58.7076 166.62C55.7412 170.054 51.0409 162.881 51.0409 162.881L42.6046 158.985C42.6046 158.985 37.5918 155.557 37.1377 154.779C36.6836 154.002 36.6688 154.779 35.7311 152.441C34.7934 150.103 31.9833 144.807 31.9833 144.807C31.9833 144.807 29.3294 140.911 31.0456 138.895C32.7617 136.88 36.828 141.216 36.828 141.216Z" fill="#F89D8F"/>
<path opacity="0.1" d="M38.0803 143.237C38.0803 143.237 34.9576 140.899 34.3325 140.122C34.0553 139.779 33.6277 139.827 33.2356 139.992C32.5039 140.305 31.7078 140.435 30.9149 140.373C30.2308 140.314 29.5673 140.353 29.6469 140.743C29.8032 141.523 29.1781 136.691 29.1781 136.691L31.832 135.757L35.282 137.622L38.0803 143.237Z" fill="black"/>
<path d="M38.0803 142.942C38.0803 142.942 34.9576 140.604 34.3325 139.826C34.0553 139.484 33.6277 139.531 33.2356 139.696C32.5039 140.009 31.7078 140.14 30.9149 140.078C30.2308 140.019 29.5673 140.057 29.6469 140.447C29.8032 141.227 29.1781 136.395 29.1781 136.395L31.832 135.461L35.282 137.326L38.0803 142.942Z" fill="#9347B2"/>
<path opacity="0.1" d="M45.435 143.238C44.8698 143.486 44.2532 143.594 43.6374 143.554C43.0215 143.513 42.4244 143.325 41.8965 143.004" fill="black"/>
<path opacity="0.1" d="M35.1907 122.438C35.3087 121.507 34.1528 123.44 34.0112 122.362L40.7284 126.257C40.7284 126.257 40.3451 126.783 39.8438 127.617C39.5893 127.646 39.3333 127.661 39.0771 127.661C37.075 127.658 36.4351 123.833 35.1907 122.438Z" fill="black"/>
<path d="M39.2502 127.345C43.0023 127.345 46.044 124.31 46.044 120.567C46.044 116.824 43.0023 113.79 39.2502 113.79C35.498 113.79 32.4563 116.824 32.4563 120.567C32.4563 124.31 35.498 127.345 39.2502 127.345Z" fill="#F89D8F"/>
<path opacity="0.1" d="M42.3001 120.685C42.2968 121.115 42.2138 121.54 42.0553 121.939C41.7604 122.468 41.1707 122.707 40.6458 123.023C38.5817 124.3 37.9536 127.161 38.6171 129.511C38.85 130.339 39.2068 131.181 39.0683 132.026C38.8058 133.48 37.1427 134.237 35.6654 134.364C34.1881 134.491 32.643 134.255 31.26 134.793C28.9394 135.694 27.9191 138.411 25.9523 139.927C23.6582 141.7 20.5001 141.582 17.6103 141.786C16.5429 141.863 15.4578 141.99 14.408 141.786C13.3583 141.582 12.3233 140.941 11.9517 139.939C11.4298 138.526 12.3822 136.983 13.488 135.966C14.5938 134.949 15.9443 134.075 16.5694 132.715C17.4128 130.871 16.7316 128.542 17.7902 126.804C17.9825 126.453 18.2852 126.175 18.6512 126.014C19.1171 125.84 19.6361 125.961 20.1256 125.979C22.0541 126.044 23.6995 124.501 24.5959 122.805C25.4923 121.108 25.8727 119.169 26.6924 117.425C27.6183 115.451 29.1635 113.71 31.1745 112.856C32.354 112.353 33.6367 112.17 34.8634 111.812C36.2611 111.408 37.5939 110.775 39.024 110.512C40.4542 110.249 42.076 110.423 43.1198 111.431C44.1047 112.38 44.3907 113.87 45.3314 114.863C45.6881 115.238 46.1423 115.554 46.3162 116.045C46.7232 117.198 44.7534 117.295 44.0988 117.759C43.6145 118.097 43.2048 118.531 42.8953 119.035C42.5859 119.538 42.3832 120.1 42.3001 120.685Z" fill="black"/>
<path d="M41.9864 120.529C41.9832 120.959 41.9002 121.384 41.7417 121.782C41.4468 122.312 40.8571 122.551 40.3322 122.867C38.2681 124.144 37.64 127.005 38.3035 129.355C38.5364 130.182 38.8932 131.025 38.7546 131.87C38.4922 133.324 36.8291 134.081 35.3518 134.208C33.8745 134.335 32.3293 134.099 30.9464 134.637C28.6257 135.538 27.6055 138.254 25.6387 139.771C23.3446 141.544 20.1865 141.426 17.2967 141.63C16.2293 141.707 15.1441 141.834 14.0944 141.63C13.0446 141.426 12.0096 140.784 11.6381 139.782C11.1162 138.37 12.0686 136.827 13.1744 135.81C14.2801 134.793 15.6307 133.918 16.2558 132.559C17.0991 130.715 16.418 128.385 17.4766 126.648C17.6688 126.296 17.9716 126.019 18.3376 125.858C18.8035 125.684 19.3225 125.805 19.812 125.823C21.7404 125.888 23.3858 124.345 24.2822 122.648C25.1787 120.952 25.559 119.013 26.3788 117.269C27.3047 115.295 28.8498 113.554 30.8609 112.7C32.0404 112.197 33.3231 112.014 34.5497 111.656C35.9474 111.251 37.2803 110.619 38.7104 110.356C40.1405 110.093 41.7623 110.267 42.8062 111.275C43.7911 112.224 44.0771 113.714 45.0177 114.707C45.3745 115.082 45.8286 115.398 46.0026 115.889C46.4095 117.042 44.4398 117.139 43.7852 117.603C43.3009 117.941 42.8912 118.375 42.5817 118.878C42.2722 119.382 42.0696 119.944 41.9864 120.529Z" fill="#141720"/>
<path d="M62.2449 96.8335C63.2593 100.519 66.7771 102.76 66.7771 102.76C66.7771 102.76 68.6555 99.0266 67.6411 95.3409C66.6268 91.6552 63.1089 89.4148 63.1089 89.4148C63.1089 89.4148 61.2306 93.1596 62.2449 96.8335Z" fill="#B247A7"/>
<path d="M81.2085 117.366C80.1175 121.029 81.9162 124.8 81.9162 124.8C81.9162 124.8 85.4812 122.633 86.5723 118.971C87.6633 115.309 85.8646 111.538 85.8646 111.538C85.8646 111.538 82.2996 113.704 81.2085 117.366Z" fill="#B247A7"/>
<path d="M209.668 52.3921L204.387 51.419L211.264 58.3488L213.754 48.9091L209.668 52.3921Z" fill="#FFFBF7"/>
<path d="M212.799 47.3856L206.683 41.2551L204.449 49.6318L208.097 46.5301L212.799 47.3856Z" fill="#FFFBF7"/>
<path d="M205.065 50.4747L209.366 51.2597L212.703 48.4249L208.396 47.6417L205.065 50.4747Z" fill="#FFFBF7"/>
<path d="M209.668 52.3921L204.387 51.419L211.264 58.3488L213.754 48.9091L209.668 52.3921Z" fill="#FFFBF7"/>
<path d="M212.799 47.3856L206.683 41.2551L204.449 49.6318L208.097 46.5301L212.799 47.3856Z" fill="#FFFBF7"/>
<path d="M205.065 50.4747L209.366 51.2597L212.703 48.4249L208.396 47.6417L205.065 50.4747Z" fill="#FFFBF7"/>
<path d="M209.905 109.745C209.298 112.176 207.987 114.372 206.135 116.055C204.284 117.739 201.976 118.834 199.504 119.204C197.032 119.573 194.506 119.199 192.245 118.129C189.985 117.06 188.091 115.343 186.804 113.195C185.517 111.047 184.894 108.565 185.015 106.062C185.135 103.559 185.992 101.149 187.479 99.1344C188.966 97.1202 191.015 95.5931 193.368 94.7461C195.72 93.899 198.27 93.7701 200.696 94.3755C202.308 94.7782 203.824 95.4953 205.159 96.4857C206.495 97.4761 207.622 98.7205 208.477 100.148C209.332 101.575 209.899 103.157 210.144 104.804C210.389 106.451 210.307 108.13 209.905 109.745Z" fill="#9347B2"/>
<path d="M150.905 86.745C150.298 89.1757 148.987 91.3716 147.135 93.0551C145.284 94.7387 142.976 95.8343 140.504 96.2036C138.032 96.5728 135.506 96.199 133.245 95.1294C130.985 94.0599 129.091 92.3426 127.804 90.1947C126.517 88.0468 125.894 85.5646 126.015 83.0619C126.135 80.5593 126.992 78.1485 128.479 76.1344C129.966 74.1202 132.015 72.5931 134.368 71.7461C136.72 70.899 139.27 70.7701 141.696 71.3755C143.308 71.7782 144.824 72.4953 146.159 73.4857C147.495 74.4761 148.622 75.7205 149.477 77.1478C150.332 78.5751 150.899 80.1573 151.144 81.804C151.389 83.4507 151.307 85.1297 150.905 86.745Z" fill="#9347B2"/>
<path d="M136.946 85.5047L133.463 81.418L134.426 91.1332L142.314 85.3809L136.946 85.5047Z" fill="#FFFBF7"/>
<path d="M142.534 83.5963L141.658 74.9813L134.639 80.0708L139.426 79.9657L142.534 83.5963Z" fill="#FFFBF7"/>
<path d="M134.585 81.1132L137.426 84.4356L141.804 84.342L138.957 81.017L134.585 81.1132Z" fill="#FFFBF7"/>
<path d="M62.9455 35.5047L59.4627 31.4181L60.4254 41.1332L68.3136 35.381L62.9455 35.5047Z" fill="#FFFBF7"/>
<path d="M68.5338 33.5963L67.6569 24.9813L60.6387 30.0708L65.4252 29.9657L68.5338 33.5963Z" fill="#FFFBF7"/>
<path d="M60.5845 31.1132L63.4256 34.4357L67.8034 34.342L64.9562 31.017L60.5845 31.1132Z" fill="#FFFBF7"/>
<path d="M195.946 108.505L192.463 104.418L193.425 114.133L201.314 108.381L195.946 108.505Z" fill="#FFFBF7"/>
<path d="M201.534 106.596L200.657 97.9813L193.639 103.071L198.425 102.966L201.534 106.596Z" fill="#FFFBF7"/>
<path d="M193.585 104.113L196.426 107.436L200.803 107.342L197.956 104.017L193.585 104.113Z" fill="#FFFBF7"/>
</g>
<defs>
<linearGradient id="paint0_linear_42_661" x1="157.85" y1="-1.34515" x2="164.953" y2="335.483" gradientUnits="userSpaceOnUse">
<stop stop-color="#FD749B"/>
<stop offset="1" stop-color="#281AC8"/>
</linearGradient>
<linearGradient id="paint1_linear_42_661" x1="135.383" y1="217.764" x2="135.383" y2="0" gradientUnits="userSpaceOnUse">
<stop stop-color="#808080" stop-opacity="0.25"/>
<stop offset="0.54" stop-color="#808080" stop-opacity="0.12"/>
<stop offset="1" stop-color="#808080" stop-opacity="0.1"/>
</linearGradient>
<linearGradient id="paint2_linear_42_661" x1="-82026.7" y1="96567.1" x2="-82026.7" y2="50945" gradientUnits="userSpaceOnUse">
<stop stop-color="#808080" stop-opacity="0.25"/>
<stop offset="0.54" stop-color="#808080" stop-opacity="0.12"/>
<stop offset="1" stop-color="#808080" stop-opacity="0.1"/>
</linearGradient>
<clipPath id="clip0_42_661">
<rect width="287" height="225" fill="white"/>
</clipPath>
</defs>
</svg>
