<svg width="43" height="12" viewBox="0 0 43 12" fill="none" xmlns="http://www.w3.org/2000/svg">
<path d="M41.7112 5.579C41.7112 7.83176 39.8849 9.65799 37.6322 9.65799C35.3794 9.65799 33.5532 7.83176 33.5532 5.579C33.5532 3.32623 35.3794 1.5 37.6322 1.5C39.8849 1.5 41.7112 3.32623 41.7112 5.579Z" fill="url(#paint0_linear_42_654)" stroke="url(#paint1_linear_42_654)"/>
<path d="M25.6819 5.579C25.6819 7.83176 23.8557 9.65799 21.6029 9.65799C19.3502 9.65799 17.5239 7.83176 17.5239 5.579C17.5239 3.32623 19.3502 1.5 21.6029 1.5C23.8557 1.5 25.6819 3.32623 25.6819 5.579Z" fill="url(#paint2_linear_42_654)" stroke="url(#paint3_linear_42_654)"/>
<path d="M5.579 10.158C8.10791 10.158 10.158 8.10791 10.158 5.579C10.158 3.05009 8.10791 1 5.579 1C3.05009 1 1 3.05009 1 5.579C1 8.10791 3.05009 10.158 5.579 10.158Z" stroke="url(#paint4_linear_42_654)" stroke-width="2" stroke-linecap="round" stroke-linejoin="round"/>
<defs>
<linearGradient id="paint0_linear_42_654" x1="38.0901" y1="-0.441536" x2="38.6067" y2="15.7816" gradientUnits="userSpaceOnUse">
<stop stop-color="#FD749B"/>
<stop offset="1" stop-color="#281AC8"/>
</linearGradient>
<linearGradient id="paint1_linear_42_654" x1="38.0901" y1="-0.441536" x2="38.6067" y2="15.7816" gradientUnits="userSpaceOnUse">
<stop stop-color="#FD749B"/>
<stop offset="1" stop-color="#281AC8"/>
</linearGradient>
<linearGradient id="paint2_linear_42_654" x1="22.0608" y1="-0.441536" x2="22.5775" y2="15.7816" gradientUnits="userSpaceOnUse">
<stop stop-color="#FD749B"/>
<stop offset="1" stop-color="#281AC8"/>
</linearGradient>
<linearGradient id="paint3_linear_42_654" x1="22.0608" y1="-0.441536" x2="22.5775" y2="15.7816" gradientUnits="userSpaceOnUse">
<stop stop-color="#FD749B"/>
<stop offset="1" stop-color="#281AC8"/>
</linearGradient>
<linearGradient id="paint4_linear_42_654" x1="6.0369" y1="-0.441536" x2="6.55357" y2="15.7816" gradientUnits="userSpaceOnUse">
<stop stop-color="#FD749B"/>
<stop offset="1" stop-color="#281AC8"/>
</linearGradient>
</defs>
</svg>
